<mxfile host="app.diagrams.net" agent="Mozilla/5.0 (X11; Linux x86_64) AppleWebKit/537.36 (KHTML, like Gecko) Chrome/131.0.0.0 Safari/537.36" version="25.0.3">
  <diagram name="Page-1" id="HaW6ePxW0aKJnPy753eh">
    <mxGraphModel dx="4260" dy="2998" grid="1" gridSize="10" guides="1" tooltips="1" connect="1" arrows="1" fold="1" page="1" pageScale="1" pageWidth="850" pageHeight="1100" math="0" shadow="0">
      <root>
        <mxCell id="0" />
        <mxCell id="1" parent="0" />
        <mxCell id="zS8ASJ6HUjmwFxihopLx-548" value="" style="rounded=0;whiteSpace=wrap;html=1;fillColor=#ffff88;strokeColor=#36393d;opacity=50;fontSize=6;" parent="1" vertex="1">
          <mxGeometry x="1520" y="1045" width="230" height="190" as="geometry" />
        </mxCell>
        <mxCell id="zS8ASJ6HUjmwFxihopLx-500" value="" style="rounded=0;whiteSpace=wrap;html=1;fillColor=#ffff88;strokeColor=#36393d;opacity=50;fontSize=6;" parent="1" vertex="1">
          <mxGeometry x="1385" y="-30" width="420" height="1785" as="geometry" />
        </mxCell>
        <mxCell id="zS8ASJ6HUjmwFxihopLx-492" value="" style="rounded=0;whiteSpace=wrap;html=1;fillColor=#ffff88;strokeColor=#36393d;opacity=50;fontSize=6;" parent="1" vertex="1">
          <mxGeometry x="985" y="805" width="240" height="310" as="geometry" />
        </mxCell>
        <mxCell id="zS8ASJ6HUjmwFxihopLx-484" value="" style="rounded=0;whiteSpace=wrap;html=1;fillColor=#ffff88;strokeColor=#36393d;opacity=50;fontSize=6;" parent="1" vertex="1">
          <mxGeometry x="910" y="-25" width="320" height="1260" as="geometry" />
        </mxCell>
        <mxCell id="zS8ASJ6HUjmwFxihopLx-474" value="" style="rounded=0;whiteSpace=wrap;html=1;fillColor=#ffff88;strokeColor=#36393d;opacity=50;fontSize=6;" parent="1" vertex="1">
          <mxGeometry x="-40" y="-180" width="120" height="430" as="geometry" />
        </mxCell>
        <mxCell id="njQS3QJm0R4QUgpITw78-44" style="edgeStyle=orthogonalEdgeStyle;rounded=0;orthogonalLoop=1;jettySize=auto;html=1;" edge="1" parent="1" source="zS8ASJ6HUjmwFxihopLx-141" target="njQS3QJm0R4QUgpITw78-43">
          <mxGeometry relative="1" as="geometry" />
        </mxCell>
        <mxCell id="zS8ASJ6HUjmwFxihopLx-141" value="Increment:&lt;div&gt;only applies to [0:60]&lt;/div&gt;" style="whiteSpace=wrap;html=1;aspect=fixed;fontSize=6;fillColor=#cce5ff;strokeColor=#36393d;" parent="1" vertex="1">
          <mxGeometry x="665" y="-30" width="80" height="80" as="geometry" />
        </mxCell>
        <mxCell id="zS8ASJ6HUjmwFxihopLx-183" value="" style="edgeStyle=orthogonalEdgeStyle;rounded=0;orthogonalLoop=1;jettySize=auto;html=1;fontSize=6;" parent="1" source="zS8ASJ6HUjmwFxihopLx-164" target="zS8ASJ6HUjmwFxihopLx-182" edge="1">
          <mxGeometry relative="1" as="geometry" />
        </mxCell>
        <mxCell id="zS8ASJ6HUjmwFxihopLx-164" value="Create Phase Series" style="whiteSpace=wrap;html=1;aspect=fixed;fillColor=#cce5ff;strokeColor=#36393d;fontSize=6;" parent="1" vertex="1">
          <mxGeometry x="-20" y="10" width="80" height="80" as="geometry" />
        </mxCell>
        <mxCell id="njQS3QJm0R4QUgpITw78-39" style="edgeStyle=orthogonalEdgeStyle;rounded=0;orthogonalLoop=1;jettySize=auto;html=1;entryX=0;entryY=0.5;entryDx=0;entryDy=0;" edge="1" parent="1" source="zS8ASJ6HUjmwFxihopLx-182" target="njQS3QJm0R4QUgpITw78-10">
          <mxGeometry relative="1" as="geometry" />
        </mxCell>
        <mxCell id="njQS3QJm0R4QUgpITw78-41" style="edgeStyle=orthogonalEdgeStyle;rounded=0;orthogonalLoop=1;jettySize=auto;html=1;entryX=0;entryY=0.5;entryDx=0;entryDy=0;" edge="1" parent="1" source="zS8ASJ6HUjmwFxihopLx-182" target="zS8ASJ6HUjmwFxihopLx-141">
          <mxGeometry relative="1" as="geometry">
            <Array as="points">
              <mxPoint x="180" y="50" />
              <mxPoint x="180" y="10" />
            </Array>
          </mxGeometry>
        </mxCell>
        <mxCell id="zS8ASJ6HUjmwFxihopLx-182" value="Phase Series&lt;div&gt;Phase: (121,5)&lt;/div&gt;&lt;div&gt;Amp: (121,5)&lt;/div&gt;&lt;div&gt;Freq:&lt;/div&gt;&lt;div&gt;(121,5)&lt;/div&gt;" style="ellipse;whiteSpace=wrap;html=1;fontSize=6;fillColor=#cdeb8b;strokeColor=#36393d;" parent="1" vertex="1">
          <mxGeometry x="90" y="20" width="60" height="60" as="geometry" />
        </mxCell>
        <mxCell id="zS8ASJ6HUjmwFxihopLx-192" style="edgeStyle=orthogonalEdgeStyle;rounded=0;orthogonalLoop=1;jettySize=auto;html=1;entryX=0.5;entryY=0;entryDx=0;entryDy=0;fontSize=6;" parent="1" source="zS8ASJ6HUjmwFxihopLx-189" target="zS8ASJ6HUjmwFxihopLx-194" edge="1">
          <mxGeometry relative="1" as="geometry">
            <mxPoint x="1015" y="60" as="targetPoint" />
          </mxGeometry>
        </mxCell>
        <mxCell id="zS8ASJ6HUjmwFxihopLx-189" value="Phase Update&lt;div&gt;(140,)&lt;/div&gt;&lt;div&gt;5 phase channels x 7 time steps x 4 components&lt;/div&gt;" style="ellipse;whiteSpace=wrap;html=1;fontSize=6;fillColor=#cdeb8b;strokeColor=#36393d;" parent="1" vertex="1">
          <mxGeometry x="775" y="100" width="60" height="60" as="geometry" />
        </mxCell>
        <mxCell id="zS8ASJ6HUjmwFxihopLx-197" value="" style="edgeStyle=orthogonalEdgeStyle;rounded=0;orthogonalLoop=1;jettySize=auto;html=1;fontSize=6;" parent="1" source="zS8ASJ6HUjmwFxihopLx-194" target="zS8ASJ6HUjmwFxihopLx-196" edge="1">
          <mxGeometry relative="1" as="geometry" />
        </mxCell>
        <mxCell id="zS8ASJ6HUjmwFxihopLx-486" style="edgeStyle=orthogonalEdgeStyle;rounded=0;orthogonalLoop=1;jettySize=auto;html=1;exitX=1;exitY=0.5;exitDx=0;exitDy=0;entryX=0.5;entryY=0;entryDx=0;entryDy=0;" parent="1" source="zS8ASJ6HUjmwFxihopLx-194" target="zS8ASJ6HUjmwFxihopLx-497" edge="1">
          <mxGeometry relative="1" as="geometry">
            <mxPoint x="1285" y="15" as="targetPoint" />
            <Array as="points">
              <mxPoint x="1155" y="145" />
              <mxPoint x="1155" y="-5" />
              <mxPoint x="1285" y="-5" />
            </Array>
          </mxGeometry>
        </mxCell>
        <mxCell id="zS8ASJ6HUjmwFxihopLx-194" value="for i in range(6,13):&lt;div&gt;i *= 10&lt;/div&gt;" style="whiteSpace=wrap;html=1;aspect=fixed;fillColor=#ffcc99;strokeColor=#36393d;fontSize=6;" parent="1" vertex="1">
          <mxGeometry x="995" y="115" width="60" height="60" as="geometry" />
        </mxCell>
        <mxCell id="zS8ASJ6HUjmwFxihopLx-209" style="edgeStyle=orthogonalEdgeStyle;rounded=0;orthogonalLoop=1;jettySize=auto;html=1;exitX=0.5;exitY=1;exitDx=0;exitDy=0;entryX=0.5;entryY=0;entryDx=0;entryDy=0;fontSize=6;" parent="1" source="zS8ASJ6HUjmwFxihopLx-196" target="zS8ASJ6HUjmwFxihopLx-199" edge="1">
          <mxGeometry relative="1" as="geometry" />
        </mxCell>
        <mxCell id="zS8ASJ6HUjmwFxihopLx-210" value="Phase series&amp;nbsp;&lt;div&gt;(121,5)&lt;/div&gt;" style="edgeLabel;html=1;align=center;verticalAlign=middle;resizable=0;points=[];fontSize=6;" parent="zS8ASJ6HUjmwFxihopLx-209" vertex="1" connectable="0">
          <mxGeometry x="0.1769" relative="1" as="geometry">
            <mxPoint x="16" y="10" as="offset" />
          </mxGeometry>
        </mxCell>
        <mxCell id="zS8ASJ6HUjmwFxihopLx-212" style="edgeStyle=orthogonalEdgeStyle;rounded=0;orthogonalLoop=1;jettySize=auto;html=1;fontSize=6;" parent="1" source="zS8ASJ6HUjmwFxihopLx-196" target="zS8ASJ6HUjmwFxihopLx-202" edge="1">
          <mxGeometry relative="1" as="geometry">
            <Array as="points">
              <mxPoint x="1025" y="275" />
              <mxPoint x="1155" y="275" />
            </Array>
          </mxGeometry>
        </mxCell>
        <mxCell id="zS8ASJ6HUjmwFxihopLx-196" value="for b in number of phase channels:" style="whiteSpace=wrap;html=1;aspect=fixed;fillColor=#ffcc99;strokeColor=#36393d;fontSize=6;" parent="1" vertex="1">
          <mxGeometry x="995" y="195" width="60" height="60" as="geometry" />
        </mxCell>
        <mxCell id="zS8ASJ6HUjmwFxihopLx-235" style="edgeStyle=orthogonalEdgeStyle;rounded=0;orthogonalLoop=1;jettySize=auto;html=1;entryX=0.25;entryY=0;entryDx=0;entryDy=0;fontSize=6;" parent="1" source="zS8ASJ6HUjmwFxihopLx-199" target="zS8ASJ6HUjmwFxihopLx-233" edge="1">
          <mxGeometry relative="1" as="geometry">
            <Array as="points">
              <mxPoint x="945" y="325" />
              <mxPoint x="945" y="515" />
              <mxPoint x="992" y="515" />
            </Array>
          </mxGeometry>
        </mxCell>
        <mxCell id="zS8ASJ6HUjmwFxihopLx-236" value="Phase&lt;div&gt;(2,)&lt;/div&gt;" style="edgeLabel;html=1;align=center;verticalAlign=middle;resizable=0;points=[];fontSize=6;" parent="zS8ASJ6HUjmwFxihopLx-235" vertex="1" connectable="0">
          <mxGeometry x="-0.5199" y="-2" relative="1" as="geometry">
            <mxPoint as="offset" />
          </mxGeometry>
        </mxCell>
        <mxCell id="zS8ASJ6HUjmwFxihopLx-199" value="convert Phase[i][b] to phase vector from normalized angle" style="whiteSpace=wrap;html=1;aspect=fixed;fillColor=#ffcc99;strokeColor=#36393d;fontSize=6;" parent="1" vertex="1">
          <mxGeometry x="953" y="295" width="60" height="60" as="geometry" />
        </mxCell>
        <mxCell id="zS8ASJ6HUjmwFxihopLx-213" style="edgeStyle=orthogonalEdgeStyle;rounded=0;orthogonalLoop=1;jettySize=auto;html=1;entryX=0.5;entryY=0;entryDx=0;entryDy=0;fontSize=6;" parent="1" source="zS8ASJ6HUjmwFxihopLx-202" target="zS8ASJ6HUjmwFxihopLx-208" edge="1">
          <mxGeometry relative="1" as="geometry" />
        </mxCell>
        <mxCell id="zS8ASJ6HUjmwFxihopLx-215" value="Amp&lt;div&gt;(1,)&lt;/div&gt;" style="edgeLabel;html=1;align=center;verticalAlign=middle;resizable=0;points=[];fontSize=6;" parent="zS8ASJ6HUjmwFxihopLx-213" vertex="1" connectable="0">
          <mxGeometry x="-0.1131" y="-2" relative="1" as="geometry">
            <mxPoint x="2" as="offset" />
          </mxGeometry>
        </mxCell>
        <mxCell id="zS8ASJ6HUjmwFxihopLx-218" style="edgeStyle=orthogonalEdgeStyle;rounded=0;orthogonalLoop=1;jettySize=auto;html=1;exitX=0.75;exitY=1;exitDx=0;exitDy=0;entryX=0.5;entryY=0;entryDx=0;entryDy=0;fontSize=6;" parent="1" target="zS8ASJ6HUjmwFxihopLx-246" edge="1">
          <mxGeometry relative="1" as="geometry">
            <mxPoint x="1170" y="351" as="sourcePoint" />
            <mxPoint x="1220" y="471" as="targetPoint" />
            <Array as="points">
              <mxPoint x="1170" y="381" />
              <mxPoint x="1220" y="381" />
            </Array>
          </mxGeometry>
        </mxCell>
        <mxCell id="zS8ASJ6HUjmwFxihopLx-241" value="Phase Update&lt;div&gt;(2,)&lt;/div&gt;" style="edgeLabel;html=1;align=center;verticalAlign=middle;resizable=0;points=[];fontSize=6;" parent="zS8ASJ6HUjmwFxihopLx-218" vertex="1" connectable="0">
          <mxGeometry x="-0.0692" y="1" relative="1" as="geometry">
            <mxPoint x="-16" y="-52" as="offset" />
          </mxGeometry>
        </mxCell>
        <mxCell id="zS8ASJ6HUjmwFxihopLx-221" style="edgeStyle=orthogonalEdgeStyle;rounded=0;orthogonalLoop=1;jettySize=auto;html=1;exitX=0.25;exitY=1;exitDx=0;exitDy=0;entryX=0.5;entryY=0;entryDx=0;entryDy=0;fontSize=6;" parent="1" source="zS8ASJ6HUjmwFxihopLx-202" target="zS8ASJ6HUjmwFxihopLx-220" edge="1">
          <mxGeometry relative="1" as="geometry" />
        </mxCell>
        <mxCell id="zS8ASJ6HUjmwFxihopLx-225" value="Freq&lt;div&gt;(1,)&lt;/div&gt;" style="edgeLabel;html=1;align=center;verticalAlign=middle;resizable=0;points=[];fontSize=6;" parent="zS8ASJ6HUjmwFxihopLx-221" vertex="1" connectable="0">
          <mxGeometry x="-0.0346" relative="1" as="geometry">
            <mxPoint as="offset" />
          </mxGeometry>
        </mxCell>
        <mxCell id="zS8ASJ6HUjmwFxihopLx-202" value="separate Phase, Amp, Freq from Phase Update" style="whiteSpace=wrap;html=1;aspect=fixed;fillColor=#ffcc99;strokeColor=#36393d;fontSize=6;" parent="1" vertex="1">
          <mxGeometry x="1125" y="295" width="60" height="60" as="geometry" />
        </mxCell>
        <mxCell id="zS8ASJ6HUjmwFxihopLx-291" style="edgeStyle=orthogonalEdgeStyle;rounded=0;orthogonalLoop=1;jettySize=auto;html=1;jumpStyle=gap;fontSize=6;" parent="1" source="zS8ASJ6HUjmwFxihopLx-208" target="zS8ASJ6HUjmwFxihopLx-289" edge="1">
          <mxGeometry relative="1" as="geometry">
            <Array as="points">
              <mxPoint x="1155" y="455" />
              <mxPoint x="1195" y="455" />
            </Array>
          </mxGeometry>
        </mxCell>
        <mxCell id="zS8ASJ6HUjmwFxihopLx-292" value="amp&lt;div&gt;(1,)&lt;/div&gt;" style="edgeLabel;html=1;align=center;verticalAlign=middle;resizable=0;points=[];fontSize=6;" parent="zS8ASJ6HUjmwFxihopLx-291" vertex="1" connectable="0">
          <mxGeometry x="0.914" y="-1" relative="1" as="geometry">
            <mxPoint as="offset" />
          </mxGeometry>
        </mxCell>
        <mxCell id="zS8ASJ6HUjmwFxihopLx-208" value="Abs(Amp)" style="whiteSpace=wrap;html=1;aspect=fixed;fillColor=#ffcc99;strokeColor=#36393d;fontSize=6;" parent="1" vertex="1">
          <mxGeometry x="1140" y="405" width="30" height="30" as="geometry" />
        </mxCell>
        <mxCell id="zS8ASJ6HUjmwFxihopLx-230" style="edgeStyle=orthogonalEdgeStyle;rounded=0;orthogonalLoop=1;jettySize=auto;html=1;fontSize=6;" parent="1" source="zS8ASJ6HUjmwFxihopLx-220" target="zS8ASJ6HUjmwFxihopLx-229" edge="1">
          <mxGeometry relative="1" as="geometry">
            <Array as="points">
              <mxPoint x="1100" y="445" />
              <mxPoint x="1050" y="445" />
            </Array>
          </mxGeometry>
        </mxCell>
        <mxCell id="zS8ASJ6HUjmwFxihopLx-231" value="Freq&lt;div&gt;(1,)&lt;/div&gt;" style="edgeLabel;html=1;align=center;verticalAlign=middle;resizable=0;points=[];fontSize=6;" parent="zS8ASJ6HUjmwFxihopLx-230" vertex="1" connectable="0">
          <mxGeometry x="-0.1369" y="-1" relative="1" as="geometry">
            <mxPoint as="offset" />
          </mxGeometry>
        </mxCell>
        <mxCell id="zS8ASJ6HUjmwFxihopLx-293" style="edgeStyle=orthogonalEdgeStyle;rounded=0;orthogonalLoop=1;jettySize=auto;html=1;entryX=0.514;entryY=0.075;entryDx=0;entryDy=0;jumpStyle=arc;fontSize=6;entryPerimeter=0;" parent="1" source="zS8ASJ6HUjmwFxihopLx-220" target="zS8ASJ6HUjmwFxihopLx-288" edge="1">
          <mxGeometry relative="1" as="geometry">
            <Array as="points">
              <mxPoint x="1100" y="715" />
              <mxPoint x="965" y="715" />
              <mxPoint x="965" y="1145" />
              <mxPoint x="1048" y="1145" />
            </Array>
          </mxGeometry>
        </mxCell>
        <mxCell id="zS8ASJ6HUjmwFxihopLx-294" value="freq&lt;div&gt;(1,)&lt;/div&gt;" style="edgeLabel;html=1;align=center;verticalAlign=middle;resizable=0;points=[];fontSize=6;" parent="zS8ASJ6HUjmwFxihopLx-293" vertex="1" connectable="0">
          <mxGeometry x="0.9335" y="-2" relative="1" as="geometry">
            <mxPoint as="offset" />
          </mxGeometry>
        </mxCell>
        <mxCell id="zS8ASJ6HUjmwFxihopLx-220" value="Abs(Freq)" style="whiteSpace=wrap;html=1;aspect=fixed;fillColor=#ffcc99;strokeColor=#36393d;fontSize=6;" parent="1" vertex="1">
          <mxGeometry x="1085" y="405" width="30" height="30" as="geometry" />
        </mxCell>
        <mxCell id="zS8ASJ6HUjmwFxihopLx-234" style="edgeStyle=orthogonalEdgeStyle;rounded=0;orthogonalLoop=1;jettySize=auto;html=1;exitX=0.5;exitY=1;exitDx=0;exitDy=0;entryX=0.75;entryY=0;entryDx=0;entryDy=0;fontSize=6;" parent="1" source="zS8ASJ6HUjmwFxihopLx-229" target="zS8ASJ6HUjmwFxihopLx-233" edge="1">
          <mxGeometry relative="1" as="geometry" />
        </mxCell>
        <mxCell id="zS8ASJ6HUjmwFxihopLx-237" value="Theta&lt;div&gt;(1,)&lt;/div&gt;" style="edgeLabel;html=1;align=center;verticalAlign=middle;resizable=0;points=[];fontSize=6;" parent="zS8ASJ6HUjmwFxihopLx-234" vertex="1" connectable="0">
          <mxGeometry x="-0.1628" y="-1" relative="1" as="geometry">
            <mxPoint as="offset" />
          </mxGeometry>
        </mxCell>
        <mxCell id="zS8ASJ6HUjmwFxihopLx-229" value="θ = -(1/60) · 2π · Abs(Freq)&lt;div&gt;&lt;br&gt;&lt;/div&gt;&lt;div&gt;Use negative to denote direction&lt;/div&gt;" style="whiteSpace=wrap;html=1;aspect=fixed;fillColor=#ffcc99;strokeColor=#36393d;fontSize=6;" parent="1" vertex="1">
          <mxGeometry x="1025" y="455" width="50" height="50" as="geometry" />
        </mxCell>
        <mxCell id="zS8ASJ6HUjmwFxihopLx-243" value="" style="edgeStyle=orthogonalEdgeStyle;rounded=0;orthogonalLoop=1;jettySize=auto;html=1;fontSize=6;" parent="1" source="zS8ASJ6HUjmwFxihopLx-233" target="zS8ASJ6HUjmwFxihopLx-242" edge="1">
          <mxGeometry relative="1" as="geometry" />
        </mxCell>
        <mxCell id="zS8ASJ6HUjmwFxihopLx-244" value="Phase&lt;div&gt;(2,)&lt;/div&gt;" style="edgeLabel;html=1;align=center;verticalAlign=middle;resizable=0;points=[];fontSize=6;" parent="zS8ASJ6HUjmwFxihopLx-243" vertex="1" connectable="0">
          <mxGeometry x="-0.3357" y="-1" relative="1" as="geometry">
            <mxPoint x="1" y="7" as="offset" />
          </mxGeometry>
        </mxCell>
        <mxCell id="zS8ASJ6HUjmwFxihopLx-233" value="R (θ ) · Phase" style="whiteSpace=wrap;html=1;aspect=fixed;fillColor=#ffcc99;strokeColor=#36393d;fontSize=6;" parent="1" vertex="1">
          <mxGeometry x="985" y="535" width="30" height="30" as="geometry" />
        </mxCell>
        <mxCell id="zS8ASJ6HUjmwFxihopLx-250" style="edgeStyle=orthogonalEdgeStyle;rounded=0;orthogonalLoop=1;jettySize=auto;html=1;exitX=0.5;exitY=1;exitDx=0;exitDy=0;entryX=0.25;entryY=0;entryDx=0;entryDy=0;jumpStyle=arc;fontSize=6;" parent="1" source="zS8ASJ6HUjmwFxihopLx-242" target="zS8ASJ6HUjmwFxihopLx-247" edge="1">
          <mxGeometry relative="1" as="geometry" />
        </mxCell>
        <mxCell id="zS8ASJ6HUjmwFxihopLx-252" value="&amp;nbsp;Phase&lt;div&gt;(2,)&lt;/div&gt;" style="edgeLabel;html=1;align=center;verticalAlign=middle;resizable=0;points=[];fontSize=6;" parent="zS8ASJ6HUjmwFxihopLx-250" vertex="1" connectable="0">
          <mxGeometry x="0.0865" relative="1" as="geometry">
            <mxPoint x="-19" as="offset" />
          </mxGeometry>
        </mxCell>
        <mxCell id="zS8ASJ6HUjmwFxihopLx-242" value="Normalize Phase" style="whiteSpace=wrap;html=1;aspect=fixed;fillColor=#ffcc99;strokeColor=#36393d;fontSize=6;" parent="1" vertex="1">
          <mxGeometry x="985" y="605" width="30" height="30" as="geometry" />
        </mxCell>
        <mxCell id="zS8ASJ6HUjmwFxihopLx-251" style="edgeStyle=orthogonalEdgeStyle;rounded=0;orthogonalLoop=1;jettySize=auto;html=1;exitX=0.5;exitY=1;exitDx=0;exitDy=0;entryX=0.75;entryY=0;entryDx=0;entryDy=0;jumpStyle=arc;fontSize=6;" parent="1" source="zS8ASJ6HUjmwFxihopLx-246" target="zS8ASJ6HUjmwFxihopLx-247" edge="1">
          <mxGeometry relative="1" as="geometry">
            <Array as="points">
              <mxPoint x="1220" y="655" />
              <mxPoint x="1147" y="655" />
            </Array>
          </mxGeometry>
        </mxCell>
        <mxCell id="zS8ASJ6HUjmwFxihopLx-253" value="Phase Update&lt;div&gt;(1,)&lt;/div&gt;" style="edgeLabel;html=1;align=center;verticalAlign=middle;resizable=0;points=[];fontSize=6;" parent="zS8ASJ6HUjmwFxihopLx-251" vertex="1" connectable="0">
          <mxGeometry x="-0.3143" relative="1" as="geometry">
            <mxPoint x="15" y="10" as="offset" />
          </mxGeometry>
        </mxCell>
        <mxCell id="zS8ASJ6HUjmwFxihopLx-246" value="Normalize Update" style="whiteSpace=wrap;html=1;aspect=fixed;fillColor=#ffcc99;strokeColor=#36393d;fontSize=6;" parent="1" vertex="1">
          <mxGeometry x="1205" y="615" width="30" height="30" as="geometry" />
        </mxCell>
        <mxCell id="zS8ASJ6HUjmwFxihopLx-255" value="" style="edgeStyle=orthogonalEdgeStyle;rounded=0;orthogonalLoop=1;jettySize=auto;html=1;fontSize=6;" parent="1" source="zS8ASJ6HUjmwFxihopLx-247" target="zS8ASJ6HUjmwFxihopLx-254" edge="1">
          <mxGeometry relative="1" as="geometry" />
        </mxCell>
        <mxCell id="zS8ASJ6HUjmwFxihopLx-256" value="slerped&lt;div&gt;(2,)&lt;/div&gt;" style="edgeLabel;html=1;align=center;verticalAlign=middle;resizable=0;points=[];fontSize=6;" parent="zS8ASJ6HUjmwFxihopLx-255" vertex="1" connectable="0">
          <mxGeometry x="-0.2333" y="1" relative="1" as="geometry">
            <mxPoint as="offset" />
          </mxGeometry>
        </mxCell>
        <mxCell id="zS8ASJ6HUjmwFxihopLx-247" value="Slerp phases" style="whiteSpace=wrap;html=1;aspect=fixed;fillColor=#ffcc99;strokeColor=#36393d;fontSize=6;" parent="1" vertex="1">
          <mxGeometry x="1125" y="675" width="30" height="30" as="geometry" />
        </mxCell>
        <mxCell id="zS8ASJ6HUjmwFxihopLx-261" value="" style="edgeStyle=orthogonalEdgeStyle;rounded=0;orthogonalLoop=1;jettySize=auto;html=1;fontSize=6;entryX=0.5;entryY=0;entryDx=0;entryDy=0;" parent="1" source="zS8ASJ6HUjmwFxihopLx-254" target="zS8ASJ6HUjmwFxihopLx-494" edge="1">
          <mxGeometry relative="1" as="geometry">
            <mxPoint x="1140" y="815" as="targetPoint" />
          </mxGeometry>
        </mxCell>
        <mxCell id="zS8ASJ6HUjmwFxihopLx-262" value="slerped&lt;div&gt;(2,)&lt;/div&gt;" style="edgeLabel;html=1;align=center;verticalAlign=middle;resizable=0;points=[];fontSize=6;" parent="zS8ASJ6HUjmwFxihopLx-261" vertex="1" connectable="0">
          <mxGeometry x="-0.4431" y="-1" relative="1" as="geometry">
            <mxPoint x="1" as="offset" />
          </mxGeometry>
        </mxCell>
        <mxCell id="zS8ASJ6HUjmwFxihopLx-254" value="Normalize slerped" style="whiteSpace=wrap;html=1;aspect=fixed;fillColor=#ffcc99;strokeColor=#36393d;fontSize=6;" parent="1" vertex="1">
          <mxGeometry x="1125" y="745" width="30" height="30" as="geometry" />
        </mxCell>
        <mxCell id="zS8ASJ6HUjmwFxihopLx-264" style="edgeStyle=orthogonalEdgeStyle;rounded=0;orthogonalLoop=1;jettySize=auto;html=1;exitX=0.5;exitY=1;exitDx=0;exitDy=0;entryX=0.75;entryY=0;entryDx=0;entryDy=0;fontSize=6;" parent="1" source="zS8ASJ6HUjmwFxihopLx-494" target="zS8ASJ6HUjmwFxihopLx-266" edge="1">
          <mxGeometry relative="1" as="geometry">
            <mxPoint x="1120" y="895" as="sourcePoint" />
            <mxPoint x="1100" y="945" as="targetPoint" />
          </mxGeometry>
        </mxCell>
        <mxCell id="zS8ASJ6HUjmwFxihopLx-265" value="phase_value&lt;div&gt;(1,)&lt;/div&gt;" style="edgeLabel;html=1;align=center;verticalAlign=middle;resizable=0;points=[];fontSize=6;" parent="zS8ASJ6HUjmwFxihopLx-264" vertex="1" connectable="0">
          <mxGeometry x="-0.5857" relative="1" as="geometry">
            <mxPoint y="-3" as="offset" />
          </mxGeometry>
        </mxCell>
        <mxCell id="zS8ASJ6HUjmwFxihopLx-276" style="edgeStyle=orthogonalEdgeStyle;rounded=0;orthogonalLoop=1;jettySize=auto;html=1;exitX=0.5;exitY=1;exitDx=0;exitDy=0;fontSize=6;" parent="1" source="zS8ASJ6HUjmwFxihopLx-266" target="zS8ASJ6HUjmwFxihopLx-275" edge="1">
          <mxGeometry relative="1" as="geometry" />
        </mxCell>
        <mxCell id="zS8ASJ6HUjmwFxihopLx-278" value="angle&lt;div&gt;(1,)&lt;/div&gt;" style="edgeLabel;html=1;align=center;verticalAlign=middle;resizable=0;points=[];fontSize=6;" parent="zS8ASJ6HUjmwFxihopLx-276" vertex="1" connectable="0">
          <mxGeometry x="-0.1392" y="-1" relative="1" as="geometry">
            <mxPoint x="4" y="-6" as="offset" />
          </mxGeometry>
        </mxCell>
        <mxCell id="zS8ASJ6HUjmwFxihopLx-266" value="Get negative of signed angle" style="whiteSpace=wrap;html=1;aspect=fixed;fillColor=#ffcc99;strokeColor=#36393d;fontSize=6;" parent="1" vertex="1">
          <mxGeometry x="1115" y="935" width="30" height="30" as="geometry" />
        </mxCell>
        <mxCell id="zS8ASJ6HUjmwFxihopLx-274" style="edgeStyle=orthogonalEdgeStyle;rounded=0;orthogonalLoop=1;jettySize=auto;html=1;fontSize=6;entryX=0;entryY=0.5;entryDx=0;entryDy=0;exitX=1;exitY=0.5;exitDx=0;exitDy=0;" parent="1" source="zS8ASJ6HUjmwFxihopLx-350" target="zS8ASJ6HUjmwFxihopLx-494" edge="1">
          <mxGeometry relative="1" as="geometry">
            <mxPoint x="1021.25" y="885" as="sourcePoint" />
            <mxPoint x="1058.75" y="925" as="targetPoint" />
            <Array as="points">
              <mxPoint x="1055" y="855" />
              <mxPoint x="1055" y="855" />
            </Array>
          </mxGeometry>
        </mxCell>
        <mxCell id="zS8ASJ6HUjmwFxihopLx-280" value="" style="edgeStyle=orthogonalEdgeStyle;rounded=0;orthogonalLoop=1;jettySize=auto;html=1;fontSize=6;" parent="1" source="zS8ASJ6HUjmwFxihopLx-275" target="zS8ASJ6HUjmwFxihopLx-279" edge="1">
          <mxGeometry relative="1" as="geometry" />
        </mxCell>
        <mxCell id="zS8ASJ6HUjmwFxihopLx-281" value="angle&lt;div&gt;(1,)&lt;/div&gt;" style="edgeLabel;html=1;align=center;verticalAlign=middle;resizable=0;points=[];fontSize=6;" parent="zS8ASJ6HUjmwFxihopLx-280" vertex="1" connectable="0">
          <mxGeometry x="-0.1689" relative="1" as="geometry">
            <mxPoint y="-6" as="offset" />
          </mxGeometry>
        </mxCell>
        <mxCell id="zS8ASJ6HUjmwFxihopLx-275" value="Ensure angle is positive" style="whiteSpace=wrap;html=1;aspect=fixed;fillColor=#ffcc99;strokeColor=#36393d;fontSize=6;" parent="1" vertex="1">
          <mxGeometry x="1115" y="990" width="30" height="30" as="geometry" />
        </mxCell>
        <mxCell id="zS8ASJ6HUjmwFxihopLx-286" value="" style="edgeStyle=orthogonalEdgeStyle;rounded=0;orthogonalLoop=1;jettySize=auto;html=1;fontSize=6;" parent="1" source="zS8ASJ6HUjmwFxihopLx-279" target="zS8ASJ6HUjmwFxihopLx-285" edge="1">
          <mxGeometry relative="1" as="geometry" />
        </mxCell>
        <mxCell id="zS8ASJ6HUjmwFxihopLx-287" value="angle&lt;div&gt;(1,)&lt;/div&gt;" style="edgeLabel;html=1;align=center;verticalAlign=middle;resizable=0;points=[];fontSize=6;" parent="zS8ASJ6HUjmwFxihopLx-286" vertex="1" connectable="0">
          <mxGeometry x="-0.3415" y="1" relative="1" as="geometry">
            <mxPoint as="offset" />
          </mxGeometry>
        </mxCell>
        <mxCell id="zS8ASJ6HUjmwFxihopLx-279" value="divide angle by max angle" style="whiteSpace=wrap;html=1;aspect=fixed;fillColor=#ffcc99;strokeColor=#36393d;fontSize=6;" parent="1" vertex="1">
          <mxGeometry x="1115" y="1065" width="30" height="30" as="geometry" />
        </mxCell>
        <mxCell id="zS8ASJ6HUjmwFxihopLx-296" style="edgeStyle=orthogonalEdgeStyle;rounded=0;orthogonalLoop=1;jettySize=auto;html=1;entryX=0;entryY=0.5;entryDx=0;entryDy=0;fontSize=6;" parent="1" source="zS8ASJ6HUjmwFxihopLx-285" target="zS8ASJ6HUjmwFxihopLx-194" edge="1">
          <mxGeometry relative="1" as="geometry">
            <Array as="points">
              <mxPoint x="1115" y="1225" />
              <mxPoint x="915" y="1225" />
              <mxPoint x="915" y="145" />
            </Array>
          </mxGeometry>
        </mxCell>
        <mxCell id="zS8ASJ6HUjmwFxihopLx-285" value="Phase[i][b] = angle&amp;nbsp;" style="whiteSpace=wrap;html=1;aspect=fixed;fillColor=#ffcc99;strokeColor=#36393d;fontSize=6;" parent="1" vertex="1">
          <mxGeometry x="1095" y="1155" width="40" height="40" as="geometry" />
        </mxCell>
        <mxCell id="zS8ASJ6HUjmwFxihopLx-295" style="edgeStyle=orthogonalEdgeStyle;rounded=0;orthogonalLoop=1;jettySize=auto;html=1;entryX=0;entryY=0.5;entryDx=0;entryDy=0;fontSize=6;" parent="1" source="zS8ASJ6HUjmwFxihopLx-288" target="zS8ASJ6HUjmwFxihopLx-194" edge="1">
          <mxGeometry relative="1" as="geometry">
            <Array as="points">
              <mxPoint x="1050" y="1215" />
              <mxPoint x="925" y="1215" />
              <mxPoint x="925" y="145" />
            </Array>
          </mxGeometry>
        </mxCell>
        <mxCell id="zS8ASJ6HUjmwFxihopLx-288" value="Freq[i][b] = freq&amp;nbsp;" style="whiteSpace=wrap;html=1;aspect=fixed;fillColor=#ffcc99;strokeColor=#36393d;fontSize=6;" parent="1" vertex="1">
          <mxGeometry x="1030" y="1155" width="35" height="35" as="geometry" />
        </mxCell>
        <mxCell id="zS8ASJ6HUjmwFxihopLx-297" style="edgeStyle=orthogonalEdgeStyle;rounded=0;orthogonalLoop=1;jettySize=auto;html=1;exitX=0.5;exitY=1;exitDx=0;exitDy=0;entryX=0;entryY=0.5;entryDx=0;entryDy=0;fontSize=6;" parent="1" source="zS8ASJ6HUjmwFxihopLx-289" target="zS8ASJ6HUjmwFxihopLx-194" edge="1">
          <mxGeometry relative="1" as="geometry">
            <Array as="points">
              <mxPoint x="1195" y="1185" />
              <mxPoint x="1195" y="1205" />
              <mxPoint x="935" y="1205" />
              <mxPoint x="935" y="145" />
            </Array>
          </mxGeometry>
        </mxCell>
        <mxCell id="zS8ASJ6HUjmwFxihopLx-289" value="Amp[i][b] = amp&amp;nbsp;" style="whiteSpace=wrap;html=1;aspect=fixed;fillColor=#ffcc99;strokeColor=#36393d;fontSize=6;" parent="1" vertex="1">
          <mxGeometry x="1175" y="1155" width="40" height="40" as="geometry" />
        </mxCell>
        <mxCell id="zS8ASJ6HUjmwFxihopLx-332" value="" style="edgeStyle=orthogonalEdgeStyle;rounded=0;orthogonalLoop=1;jettySize=auto;html=1;fontSize=6;" parent="1" source="zS8ASJ6HUjmwFxihopLx-304" target="zS8ASJ6HUjmwFxihopLx-331" edge="1">
          <mxGeometry relative="1" as="geometry" />
        </mxCell>
        <mxCell id="zS8ASJ6HUjmwFxihopLx-502" style="edgeStyle=orthogonalEdgeStyle;rounded=0;orthogonalLoop=1;jettySize=auto;html=1;exitX=1;exitY=0.5;exitDx=0;exitDy=0;entryX=0;entryY=0.5;entryDx=0;entryDy=0;" parent="1" source="zS8ASJ6HUjmwFxihopLx-304" target="zS8ASJ6HUjmwFxihopLx-495" edge="1">
          <mxGeometry relative="1" as="geometry" />
        </mxCell>
        <mxCell id="zS8ASJ6HUjmwFxihopLx-304" value="&lt;div&gt;for i range(60,121)&lt;/div&gt;&lt;div&gt;prev_idx = i&lt;/div&gt;&lt;div&gt;next_idx = i + 1&lt;/div&gt;" style="whiteSpace=wrap;html=1;aspect=fixed;fillColor=#ffcc99;strokeColor=#36393d;fontSize=6;" parent="1" vertex="1">
          <mxGeometry x="1575" y="115" width="60" height="60" as="geometry" />
        </mxCell>
        <mxCell id="zS8ASJ6HUjmwFxihopLx-458" style="edgeStyle=orthogonalEdgeStyle;rounded=0;orthogonalLoop=1;jettySize=auto;html=1;exitX=0;exitY=1;exitDx=0;exitDy=0;entryX=0.25;entryY=0;entryDx=0;entryDy=0;fontSize=6;" parent="1" source="zS8ASJ6HUjmwFxihopLx-312" target="zS8ASJ6HUjmwFxihopLx-448" edge="1">
          <mxGeometry relative="1" as="geometry">
            <Array as="points">
              <mxPoint x="1475" y="429" />
              <mxPoint x="1475" y="455" />
              <mxPoint x="1422" y="455" />
            </Array>
          </mxGeometry>
        </mxCell>
        <mxCell id="zS8ASJ6HUjmwFxihopLx-312" value="prev_freq" style="ellipse;whiteSpace=wrap;html=1;aspect=fixed;fontSize=6;fillColor=#cdeb8b;strokeColor=#36393d;" parent="1" vertex="1">
          <mxGeometry x="1455" y="395" width="40" height="40" as="geometry" />
        </mxCell>
        <mxCell id="zS8ASJ6HUjmwFxihopLx-456" style="edgeStyle=orthogonalEdgeStyle;rounded=0;orthogonalLoop=1;jettySize=auto;html=1;exitX=0;exitY=1;exitDx=0;exitDy=0;entryX=0.25;entryY=0;entryDx=0;entryDy=0;fontSize=6;" parent="1" source="zS8ASJ6HUjmwFxihopLx-313" target="zS8ASJ6HUjmwFxihopLx-342" edge="1">
          <mxGeometry relative="1" as="geometry">
            <Array as="points">
              <mxPoint x="1501" y="565" />
              <mxPoint x="1533" y="565" />
            </Array>
          </mxGeometry>
        </mxCell>
        <mxCell id="zS8ASJ6HUjmwFxihopLx-457" style="edgeStyle=orthogonalEdgeStyle;rounded=0;orthogonalLoop=1;jettySize=auto;html=1;exitX=1;exitY=1;exitDx=0;exitDy=0;entryX=0.25;entryY=0;entryDx=0;entryDy=0;jumpStyle=arc;" parent="1" source="zS8ASJ6HUjmwFxihopLx-313" target="zS8ASJ6HUjmwFxihopLx-451" edge="1">
          <mxGeometry relative="1" as="geometry">
            <Array as="points">
              <mxPoint x="1529" y="445" />
              <mxPoint x="1778" y="445" />
              <mxPoint x="1778" y="515" />
            </Array>
          </mxGeometry>
        </mxCell>
        <mxCell id="zS8ASJ6HUjmwFxihopLx-313" value="prev_amp" style="ellipse;whiteSpace=wrap;html=1;aspect=fixed;fontSize=6;fillColor=#cdeb8b;strokeColor=#36393d;" parent="1" vertex="1">
          <mxGeometry x="1495" y="395" width="40" height="40" as="geometry" />
        </mxCell>
        <mxCell id="zS8ASJ6HUjmwFxihopLx-328" style="edgeStyle=orthogonalEdgeStyle;rounded=0;orthogonalLoop=1;jettySize=auto;html=1;exitX=0.5;exitY=1;exitDx=0;exitDy=0;entryX=0.5;entryY=0;entryDx=0;entryDy=0;jumpStyle=arc;fontSize=6;" parent="1" source="zS8ASJ6HUjmwFxihopLx-314" target="zS8ASJ6HUjmwFxihopLx-327" edge="1">
          <mxGeometry relative="1" as="geometry" />
        </mxCell>
        <mxCell id="zS8ASJ6HUjmwFxihopLx-340" value="prev_phase&lt;div&gt;(1,)&lt;/div&gt;" style="edgeLabel;html=1;align=center;verticalAlign=middle;resizable=0;points=[];fontSize=6;" parent="zS8ASJ6HUjmwFxihopLx-328" vertex="1" connectable="0">
          <mxGeometry x="-0.2612" relative="1" as="geometry">
            <mxPoint as="offset" />
          </mxGeometry>
        </mxCell>
        <mxCell id="zS8ASJ6HUjmwFxihopLx-314" value="prev_phase" style="ellipse;whiteSpace=wrap;html=1;aspect=fixed;fontSize=6;fillColor=#cdeb8b;strokeColor=#36393d;" parent="1" vertex="1">
          <mxGeometry x="1535" y="395" width="40" height="40" as="geometry" />
        </mxCell>
        <mxCell id="zS8ASJ6HUjmwFxihopLx-459" style="edgeStyle=orthogonalEdgeStyle;rounded=0;orthogonalLoop=1;jettySize=auto;html=1;exitX=0;exitY=1;exitDx=0;exitDy=0;entryX=0.75;entryY=0;entryDx=0;entryDy=0;jumpStyle=arc;fontSize=6;" parent="1" source="zS8ASJ6HUjmwFxihopLx-315" target="zS8ASJ6HUjmwFxihopLx-448" edge="1">
          <mxGeometry relative="1" as="geometry">
            <Array as="points">
              <mxPoint x="1655" y="429" />
              <mxPoint x="1655" y="475" />
              <mxPoint x="1438" y="475" />
            </Array>
          </mxGeometry>
        </mxCell>
        <mxCell id="zS8ASJ6HUjmwFxihopLx-315" value="next_freq" style="ellipse;whiteSpace=wrap;html=1;aspect=fixed;fontSize=6;fillColor=#cdeb8b;strokeColor=#36393d;" parent="1" vertex="1">
          <mxGeometry x="1635" y="395" width="40" height="40" as="geometry" />
        </mxCell>
        <mxCell id="zS8ASJ6HUjmwFxihopLx-461" style="edgeStyle=orthogonalEdgeStyle;rounded=0;orthogonalLoop=1;jettySize=auto;html=1;exitX=0;exitY=1;exitDx=0;exitDy=0;entryX=0.25;entryY=0;entryDx=0;entryDy=0;jumpStyle=arc;fontSize=6;" parent="1" source="zS8ASJ6HUjmwFxihopLx-316" target="zS8ASJ6HUjmwFxihopLx-346" edge="1">
          <mxGeometry relative="1" as="geometry">
            <Array as="points">
              <mxPoint x="1681" y="565" />
              <mxPoint x="1713" y="565" />
            </Array>
          </mxGeometry>
        </mxCell>
        <mxCell id="zS8ASJ6HUjmwFxihopLx-462" style="edgeStyle=orthogonalEdgeStyle;rounded=0;orthogonalLoop=1;jettySize=auto;html=1;exitX=1;exitY=1;exitDx=0;exitDy=0;entryX=0.75;entryY=0;entryDx=0;entryDy=0;jumpStyle=arc;" parent="1" edge="1">
          <mxGeometry relative="1" as="geometry">
            <mxPoint x="1708.142135623767" y="429.1421356237672" as="sourcePoint" />
            <mxPoint x="1791.5" y="515" as="targetPoint" />
            <Array as="points">
              <mxPoint x="1708" y="485" />
              <mxPoint x="1791" y="485" />
            </Array>
          </mxGeometry>
        </mxCell>
        <mxCell id="zS8ASJ6HUjmwFxihopLx-316" value="next_amp" style="ellipse;whiteSpace=wrap;html=1;aspect=fixed;fontSize=6;fillColor=#cdeb8b;strokeColor=#36393d;" parent="1" vertex="1">
          <mxGeometry x="1675" y="395" width="40" height="40" as="geometry" />
        </mxCell>
        <mxCell id="zS8ASJ6HUjmwFxihopLx-330" style="edgeStyle=orthogonalEdgeStyle;rounded=0;orthogonalLoop=1;jettySize=auto;html=1;entryX=0.5;entryY=0;entryDx=0;entryDy=0;jumpStyle=arc;fontSize=6;" parent="1" source="zS8ASJ6HUjmwFxihopLx-317" target="zS8ASJ6HUjmwFxihopLx-329" edge="1">
          <mxGeometry relative="1" as="geometry" />
        </mxCell>
        <mxCell id="zS8ASJ6HUjmwFxihopLx-341" value="next_phase&lt;div&gt;(1,)&lt;/div&gt;" style="edgeLabel;html=1;align=center;verticalAlign=middle;resizable=0;points=[];fontSize=6;" parent="zS8ASJ6HUjmwFxihopLx-330" vertex="1" connectable="0">
          <mxGeometry x="-0.2816" y="1" relative="1" as="geometry">
            <mxPoint as="offset" />
          </mxGeometry>
        </mxCell>
        <mxCell id="zS8ASJ6HUjmwFxihopLx-317" value="next_phase" style="ellipse;whiteSpace=wrap;html=1;aspect=fixed;fontSize=6;fillColor=#cdeb8b;strokeColor=#36393d;" parent="1" vertex="1">
          <mxGeometry x="1715" y="395" width="40" height="40" as="geometry" />
        </mxCell>
        <mxCell id="zS8ASJ6HUjmwFxihopLx-343" value="" style="edgeStyle=orthogonalEdgeStyle;rounded=0;orthogonalLoop=1;jettySize=auto;html=1;entryX=0.75;entryY=0;entryDx=0;entryDy=0;fontSize=6;" parent="1" source="zS8ASJ6HUjmwFxihopLx-327" target="zS8ASJ6HUjmwFxihopLx-342" edge="1">
          <mxGeometry relative="1" as="geometry" />
        </mxCell>
        <mxCell id="zS8ASJ6HUjmwFxihopLx-344" value="prev_phase_vector&lt;div&gt;(2,)&lt;/div&gt;" style="edgeLabel;html=1;align=center;verticalAlign=middle;resizable=0;points=[];fontSize=6;" parent="zS8ASJ6HUjmwFxihopLx-343" vertex="1" connectable="0">
          <mxGeometry x="-0.5503" y="1" relative="1" as="geometry">
            <mxPoint as="offset" />
          </mxGeometry>
        </mxCell>
        <mxCell id="zS8ASJ6HUjmwFxihopLx-327" value="Convert to phase vector" style="whiteSpace=wrap;html=1;aspect=fixed;fillColor=#ffcc99;strokeColor=#36393d;fontSize=6;" parent="1" vertex="1">
          <mxGeometry x="1540" y="505" width="30" height="30" as="geometry" />
        </mxCell>
        <mxCell id="zS8ASJ6HUjmwFxihopLx-329" value="Convert to phase vector" style="whiteSpace=wrap;html=1;aspect=fixed;fillColor=#ffcc99;strokeColor=#36393d;fontSize=6;" parent="1" vertex="1">
          <mxGeometry x="1720" y="505" width="30" height="30" as="geometry" />
        </mxCell>
        <mxCell id="zS8ASJ6HUjmwFxihopLx-333" style="edgeStyle=orthogonalEdgeStyle;rounded=0;orthogonalLoop=1;jettySize=auto;html=1;entryX=0.5;entryY=0;entryDx=0;entryDy=0;fontSize=6;" parent="1" source="zS8ASJ6HUjmwFxihopLx-331" target="zS8ASJ6HUjmwFxihopLx-314" edge="1">
          <mxGeometry relative="1" as="geometry">
            <Array as="points">
              <mxPoint x="1595" y="325" />
              <mxPoint x="1555" y="325" />
            </Array>
          </mxGeometry>
        </mxCell>
        <mxCell id="zS8ASJ6HUjmwFxihopLx-334" style="edgeStyle=orthogonalEdgeStyle;rounded=0;orthogonalLoop=1;jettySize=auto;html=1;fontSize=6;" parent="1" source="zS8ASJ6HUjmwFxihopLx-331" target="zS8ASJ6HUjmwFxihopLx-315" edge="1">
          <mxGeometry relative="1" as="geometry">
            <Array as="points">
              <mxPoint x="1615" y="325" />
              <mxPoint x="1655" y="325" />
            </Array>
          </mxGeometry>
        </mxCell>
        <mxCell id="zS8ASJ6HUjmwFxihopLx-335" style="edgeStyle=orthogonalEdgeStyle;rounded=0;orthogonalLoop=1;jettySize=auto;html=1;fontSize=6;" parent="1" source="zS8ASJ6HUjmwFxihopLx-331" target="zS8ASJ6HUjmwFxihopLx-316" edge="1">
          <mxGeometry relative="1" as="geometry">
            <Array as="points">
              <mxPoint x="1615" y="325" />
              <mxPoint x="1695" y="325" />
            </Array>
          </mxGeometry>
        </mxCell>
        <mxCell id="zS8ASJ6HUjmwFxihopLx-337" style="edgeStyle=orthogonalEdgeStyle;rounded=0;orthogonalLoop=1;jettySize=auto;html=1;exitX=0.5;exitY=1;exitDx=0;exitDy=0;entryX=0.5;entryY=0;entryDx=0;entryDy=0;fontSize=6;" parent="1" source="zS8ASJ6HUjmwFxihopLx-331" target="zS8ASJ6HUjmwFxihopLx-317" edge="1">
          <mxGeometry relative="1" as="geometry">
            <Array as="points">
              <mxPoint x="1615" y="255" />
              <mxPoint x="1615" y="325" />
              <mxPoint x="1735" y="325" />
            </Array>
          </mxGeometry>
        </mxCell>
        <mxCell id="zS8ASJ6HUjmwFxihopLx-338" style="edgeStyle=orthogonalEdgeStyle;rounded=0;orthogonalLoop=1;jettySize=auto;html=1;fontSize=6;" parent="1" source="zS8ASJ6HUjmwFxihopLx-331" target="zS8ASJ6HUjmwFxihopLx-313" edge="1">
          <mxGeometry relative="1" as="geometry">
            <Array as="points">
              <mxPoint x="1595" y="325" />
              <mxPoint x="1515" y="325" />
            </Array>
          </mxGeometry>
        </mxCell>
        <mxCell id="zS8ASJ6HUjmwFxihopLx-339" style="edgeStyle=orthogonalEdgeStyle;rounded=0;orthogonalLoop=1;jettySize=auto;html=1;fontSize=6;" parent="1" source="zS8ASJ6HUjmwFxihopLx-331" target="zS8ASJ6HUjmwFxihopLx-312" edge="1">
          <mxGeometry relative="1" as="geometry">
            <Array as="points">
              <mxPoint x="1595" y="325" />
              <mxPoint x="1475" y="325" />
            </Array>
          </mxGeometry>
        </mxCell>
        <mxCell id="zS8ASJ6HUjmwFxihopLx-331" value="for b in number of phase channels:" style="whiteSpace=wrap;html=1;aspect=fixed;fillColor=#ffcc99;strokeColor=#36393d;fontSize=6;" parent="1" vertex="1">
          <mxGeometry x="1575" y="195" width="60" height="60" as="geometry" />
        </mxCell>
        <mxCell id="zS8ASJ6HUjmwFxihopLx-534" style="edgeStyle=orthogonalEdgeStyle;rounded=0;orthogonalLoop=1;jettySize=auto;html=1;exitX=0.75;exitY=1;exitDx=0;exitDy=0;" parent="1" source="zS8ASJ6HUjmwFxihopLx-342" target="zS8ASJ6HUjmwFxihopLx-354" edge="1">
          <mxGeometry relative="1" as="geometry" />
        </mxCell>
        <mxCell id="zS8ASJ6HUjmwFxihopLx-538" style="edgeStyle=orthogonalEdgeStyle;rounded=0;orthogonalLoop=1;jettySize=auto;html=1;exitX=0.25;exitY=1;exitDx=0;exitDy=0;" parent="1" source="zS8ASJ6HUjmwFxihopLx-342" target="zS8ASJ6HUjmwFxihopLx-537" edge="1">
          <mxGeometry relative="1" as="geometry" />
        </mxCell>
        <mxCell id="zS8ASJ6HUjmwFxihopLx-342" value="scale by prev_amp" style="whiteSpace=wrap;html=1;aspect=fixed;fillColor=#ffcc99;strokeColor=#36393d;fontSize=6;" parent="1" vertex="1">
          <mxGeometry x="1525" y="605" width="30" height="30" as="geometry" />
        </mxCell>
        <mxCell id="zS8ASJ6HUjmwFxihopLx-352" value="" style="edgeStyle=orthogonalEdgeStyle;rounded=0;orthogonalLoop=1;jettySize=auto;html=1;fontSize=6;entryX=0.5;entryY=0;entryDx=0;entryDy=0;" parent="1" source="zS8ASJ6HUjmwFxihopLx-346" target="zS8ASJ6HUjmwFxihopLx-507" edge="1">
          <mxGeometry relative="1" as="geometry">
            <mxPoint x="1720" y="675" as="targetPoint" />
          </mxGeometry>
        </mxCell>
        <mxCell id="zS8ASJ6HUjmwFxihopLx-353" value="scaled next_phase_vector&lt;div&gt;(2,)&lt;/div&gt;" style="edgeLabel;html=1;align=center;verticalAlign=middle;resizable=0;points=[];fontSize=6;" parent="zS8ASJ6HUjmwFxihopLx-352" vertex="1" connectable="0">
          <mxGeometry x="-0.2985" y="-2" relative="1" as="geometry">
            <mxPoint as="offset" />
          </mxGeometry>
        </mxCell>
        <mxCell id="zS8ASJ6HUjmwFxihopLx-346" value="scale by next_amp" style="whiteSpace=wrap;html=1;aspect=fixed;fillColor=#ffcc99;strokeColor=#36393d;fontSize=6;" parent="1" vertex="1">
          <mxGeometry x="1705" y="605" width="30" height="30" as="geometry" />
        </mxCell>
        <mxCell id="zS8ASJ6HUjmwFxihopLx-347" style="edgeStyle=orthogonalEdgeStyle;rounded=0;orthogonalLoop=1;jettySize=auto;html=1;exitX=0.5;exitY=1;exitDx=0;exitDy=0;entryX=0.622;entryY=0.026;entryDx=0;entryDy=0;entryPerimeter=0;fontSize=6;" parent="1" source="zS8ASJ6HUjmwFxihopLx-329" target="zS8ASJ6HUjmwFxihopLx-346" edge="1">
          <mxGeometry relative="1" as="geometry" />
        </mxCell>
        <mxCell id="zS8ASJ6HUjmwFxihopLx-349" value="next_phase_vector&lt;div&gt;(2,)&lt;/div&gt;" style="edgeLabel;html=1;align=center;verticalAlign=middle;resizable=0;points=[];fontSize=6;" parent="zS8ASJ6HUjmwFxihopLx-347" vertex="1" connectable="0">
          <mxGeometry x="-0.6425" relative="1" as="geometry">
            <mxPoint as="offset" />
          </mxGeometry>
        </mxCell>
        <mxCell id="zS8ASJ6HUjmwFxihopLx-350" value="up vector&lt;div&gt;[0,1]&lt;/div&gt;" style="ellipse;whiteSpace=wrap;html=1;aspect=fixed;fontSize=6;fillColor=#cdeb8b;strokeColor=#36393d;" parent="1" vertex="1">
          <mxGeometry x="1025" y="840" width="30" height="30" as="geometry" />
        </mxCell>
        <mxCell id="zS8ASJ6HUjmwFxihopLx-362" value="" style="edgeStyle=orthogonalEdgeStyle;rounded=0;orthogonalLoop=1;jettySize=auto;html=1;fontSize=6;exitX=0.5;exitY=1;exitDx=0;exitDy=0;" parent="1" source="zS8ASJ6HUjmwFxihopLx-507" target="zS8ASJ6HUjmwFxihopLx-361" edge="1">
          <mxGeometry relative="1" as="geometry">
            <mxPoint x="1720" y="755" as="sourcePoint" />
          </mxGeometry>
        </mxCell>
        <mxCell id="zS8ASJ6HUjmwFxihopLx-363" value="next_phase&lt;div&gt;(1,)&lt;/div&gt;" style="edgeLabel;html=1;align=center;verticalAlign=middle;resizable=0;points=[];fontSize=6;" parent="zS8ASJ6HUjmwFxihopLx-362" vertex="1" connectable="0">
          <mxGeometry x="-0.1754" y="-1" relative="1" as="geometry">
            <mxPoint as="offset" />
          </mxGeometry>
        </mxCell>
        <mxCell id="zS8ASJ6HUjmwFxihopLx-359" value="" style="edgeStyle=orthogonalEdgeStyle;rounded=0;orthogonalLoop=1;jettySize=auto;html=1;fontSize=6;" parent="1" source="zS8ASJ6HUjmwFxihopLx-354" target="zS8ASJ6HUjmwFxihopLx-358" edge="1">
          <mxGeometry relative="1" as="geometry" />
        </mxCell>
        <mxCell id="zS8ASJ6HUjmwFxihopLx-360" value="prev_phase&lt;div&gt;(1,)&lt;/div&gt;" style="edgeLabel;html=1;align=center;verticalAlign=middle;resizable=0;points=[];fontSize=6;" parent="zS8ASJ6HUjmwFxihopLx-359" vertex="1" connectable="0">
          <mxGeometry x="-0.1138" y="1" relative="1" as="geometry">
            <mxPoint x="1" y="-1" as="offset" />
          </mxGeometry>
        </mxCell>
        <mxCell id="zS8ASJ6HUjmwFxihopLx-354" value="Calculate signed angle" style="whiteSpace=wrap;html=1;aspect=fixed;fillColor=#ffcc99;strokeColor=#36393d;fontSize=6;" parent="1" vertex="1">
          <mxGeometry x="1525" y="700" width="30" height="30" as="geometry" />
        </mxCell>
        <mxCell id="zS8ASJ6HUjmwFxihopLx-517" style="edgeStyle=orthogonalEdgeStyle;rounded=0;orthogonalLoop=1;jettySize=auto;html=1;exitX=0;exitY=0.5;exitDx=0;exitDy=0;" parent="1" source="zS8ASJ6HUjmwFxihopLx-357" target="zS8ASJ6HUjmwFxihopLx-358" edge="1">
          <mxGeometry relative="1" as="geometry" />
        </mxCell>
        <mxCell id="zS8ASJ6HUjmwFxihopLx-518" style="edgeStyle=orthogonalEdgeStyle;rounded=0;orthogonalLoop=1;jettySize=auto;html=1;exitX=1;exitY=0.5;exitDx=0;exitDy=0;entryX=0;entryY=0.5;entryDx=0;entryDy=0;" parent="1" source="zS8ASJ6HUjmwFxihopLx-357" target="zS8ASJ6HUjmwFxihopLx-361" edge="1">
          <mxGeometry relative="1" as="geometry" />
        </mxCell>
        <mxCell id="zS8ASJ6HUjmwFxihopLx-357" value="up vector&lt;div&gt;[0,1]&lt;/div&gt;" style="ellipse;whiteSpace=wrap;html=1;aspect=fixed;fontSize=6;fillColor=#cdeb8b;strokeColor=#36393d;" parent="1" vertex="1">
          <mxGeometry x="1615" y="765" width="30" height="30" as="geometry" />
        </mxCell>
        <mxCell id="zS8ASJ6HUjmwFxihopLx-519" style="edgeStyle=orthogonalEdgeStyle;rounded=0;orthogonalLoop=1;jettySize=auto;html=1;exitX=0.5;exitY=1;exitDx=0;exitDy=0;entryX=0.5;entryY=0;entryDx=0;entryDy=0;" parent="1" source="zS8ASJ6HUjmwFxihopLx-358" target="zS8ASJ6HUjmwFxihopLx-364" edge="1">
          <mxGeometry relative="1" as="geometry">
            <Array as="points">
              <mxPoint x="1540" y="855" />
              <mxPoint x="1540" y="855" />
            </Array>
          </mxGeometry>
        </mxCell>
        <mxCell id="zS8ASJ6HUjmwFxihopLx-520" value="&lt;font&gt;prev_phase&lt;/font&gt;&lt;div&gt;&lt;font&gt;(1,)&lt;/font&gt;&lt;/div&gt;" style="edgeLabel;html=1;align=center;verticalAlign=middle;resizable=0;points=[];fontSize=6;" parent="zS8ASJ6HUjmwFxihopLx-519" vertex="1" connectable="0">
          <mxGeometry x="-0.5667" relative="1" as="geometry">
            <mxPoint as="offset" />
          </mxGeometry>
        </mxCell>
        <mxCell id="zS8ASJ6HUjmwFxihopLx-358" value="Calculate signed angle" style="whiteSpace=wrap;html=1;aspect=fixed;fillColor=#ffcc99;strokeColor=#36393d;fontSize=6;" parent="1" vertex="1">
          <mxGeometry x="1525" y="765" width="30" height="30" as="geometry" />
        </mxCell>
        <mxCell id="zS8ASJ6HUjmwFxihopLx-521" style="edgeStyle=orthogonalEdgeStyle;rounded=0;orthogonalLoop=1;jettySize=auto;html=1;exitX=0.5;exitY=1;exitDx=0;exitDy=0;" parent="1" source="zS8ASJ6HUjmwFxihopLx-361" target="zS8ASJ6HUjmwFxihopLx-365" edge="1">
          <mxGeometry relative="1" as="geometry">
            <Array as="points">
              <mxPoint x="1720" y="855" />
              <mxPoint x="1720" y="855" />
            </Array>
          </mxGeometry>
        </mxCell>
        <mxCell id="zS8ASJ6HUjmwFxihopLx-361" value="Calculate signed angle" style="whiteSpace=wrap;html=1;aspect=fixed;fillColor=#ffcc99;strokeColor=#36393d;fontSize=6;" parent="1" vertex="1">
          <mxGeometry x="1705" y="765" width="30" height="30" as="geometry" />
        </mxCell>
        <mxCell id="zS8ASJ6HUjmwFxihopLx-373" value="" style="edgeStyle=orthogonalEdgeStyle;rounded=0;orthogonalLoop=1;jettySize=auto;html=1;fontSize=6;" parent="1" source="zS8ASJ6HUjmwFxihopLx-364" target="zS8ASJ6HUjmwFxihopLx-372" edge="1">
          <mxGeometry relative="1" as="geometry" />
        </mxCell>
        <mxCell id="zS8ASJ6HUjmwFxihopLx-374" value="prev_angle&lt;div&gt;(1,)&lt;/div&gt;" style="edgeLabel;html=1;align=center;verticalAlign=middle;resizable=0;points=[];fontSize=6;" parent="zS8ASJ6HUjmwFxihopLx-373" vertex="1" connectable="0">
          <mxGeometry x="-0.2273" y="-2" relative="1" as="geometry">
            <mxPoint as="offset" />
          </mxGeometry>
        </mxCell>
        <mxCell id="zS8ASJ6HUjmwFxihopLx-364" value="get negative of signed angle" style="whiteSpace=wrap;html=1;aspect=fixed;fillColor=#ffcc99;strokeColor=#36393d;fontSize=6;" parent="1" vertex="1">
          <mxGeometry x="1525" y="865" width="30" height="30" as="geometry" />
        </mxCell>
        <mxCell id="zS8ASJ6HUjmwFxihopLx-377" value="" style="edgeStyle=orthogonalEdgeStyle;rounded=0;orthogonalLoop=1;jettySize=auto;html=1;fontSize=6;" parent="1" source="zS8ASJ6HUjmwFxihopLx-365" target="zS8ASJ6HUjmwFxihopLx-376" edge="1">
          <mxGeometry relative="1" as="geometry" />
        </mxCell>
        <mxCell id="zS8ASJ6HUjmwFxihopLx-378" value="next_angle&lt;div&gt;(1,)&lt;/div&gt;" style="edgeLabel;html=1;align=center;verticalAlign=middle;resizable=0;points=[];fontSize=6;" parent="zS8ASJ6HUjmwFxihopLx-377" vertex="1" connectable="0">
          <mxGeometry x="-0.2246" relative="1" as="geometry">
            <mxPoint as="offset" />
          </mxGeometry>
        </mxCell>
        <mxCell id="zS8ASJ6HUjmwFxihopLx-365" value="get negative of signed angle" style="whiteSpace=wrap;html=1;aspect=fixed;fillColor=#ffcc99;strokeColor=#36393d;fontSize=6;" parent="1" vertex="1">
          <mxGeometry x="1705" y="865" width="30" height="30" as="geometry" />
        </mxCell>
        <mxCell id="zS8ASJ6HUjmwFxihopLx-380" value="" style="edgeStyle=orthogonalEdgeStyle;rounded=0;orthogonalLoop=1;jettySize=auto;html=1;fontSize=6;" parent="1" source="zS8ASJ6HUjmwFxihopLx-372" target="zS8ASJ6HUjmwFxihopLx-379" edge="1">
          <mxGeometry relative="1" as="geometry" />
        </mxCell>
        <mxCell id="zS8ASJ6HUjmwFxihopLx-383" value="prev_angle&lt;div&gt;(1,)&lt;/div&gt;" style="edgeLabel;html=1;align=center;verticalAlign=middle;resizable=0;points=[];fontSize=6;" parent="zS8ASJ6HUjmwFxihopLx-380" vertex="1" connectable="0">
          <mxGeometry x="0.1636" y="2" relative="1" as="geometry">
            <mxPoint as="offset" />
          </mxGeometry>
        </mxCell>
        <mxCell id="zS8ASJ6HUjmwFxihopLx-372" value="ensure angle is positive" style="whiteSpace=wrap;html=1;aspect=fixed;fillColor=#ffcc99;strokeColor=#36393d;fontSize=6;" parent="1" vertex="1">
          <mxGeometry x="1525" y="935" width="30" height="30" as="geometry" />
        </mxCell>
        <mxCell id="zS8ASJ6HUjmwFxihopLx-382" value="" style="edgeStyle=orthogonalEdgeStyle;rounded=0;orthogonalLoop=1;jettySize=auto;html=1;fontSize=6;" parent="1" source="zS8ASJ6HUjmwFxihopLx-376" target="zS8ASJ6HUjmwFxihopLx-381" edge="1">
          <mxGeometry relative="1" as="geometry" />
        </mxCell>
        <mxCell id="zS8ASJ6HUjmwFxihopLx-384" value="next_angle&lt;div&gt;(1,)&lt;/div&gt;" style="edgeLabel;html=1;align=center;verticalAlign=middle;resizable=0;points=[];fontSize=6;" parent="zS8ASJ6HUjmwFxihopLx-382" vertex="1" connectable="0">
          <mxGeometry x="-0.7333" relative="1" as="geometry">
            <mxPoint y="3" as="offset" />
          </mxGeometry>
        </mxCell>
        <mxCell id="zS8ASJ6HUjmwFxihopLx-376" value="ensure angle is positive" style="whiteSpace=wrap;html=1;aspect=fixed;fillColor=#ffcc99;strokeColor=#36393d;fontSize=6;" parent="1" vertex="1">
          <mxGeometry x="1705" y="935" width="30" height="30" as="geometry" />
        </mxCell>
        <mxCell id="zS8ASJ6HUjmwFxihopLx-398" value="" style="edgeStyle=orthogonalEdgeStyle;rounded=0;orthogonalLoop=1;jettySize=auto;html=1;fontSize=6;" parent="1" source="zS8ASJ6HUjmwFxihopLx-379" target="zS8ASJ6HUjmwFxihopLx-396" edge="1">
          <mxGeometry relative="1" as="geometry" />
        </mxCell>
        <mxCell id="zS8ASJ6HUjmwFxihopLx-400" value="prev_angle&lt;div&gt;(1,)&lt;/div&gt;" style="edgeLabel;html=1;align=center;verticalAlign=middle;resizable=0;points=[];fontSize=6;" parent="zS8ASJ6HUjmwFxihopLx-398" vertex="1" connectable="0">
          <mxGeometry x="0.1306" relative="1" as="geometry">
            <mxPoint as="offset" />
          </mxGeometry>
        </mxCell>
        <mxCell id="zS8ASJ6HUjmwFxihopLx-379" value="divide angle by max angle" style="whiteSpace=wrap;html=1;aspect=fixed;fillColor=#ffcc99;strokeColor=#36393d;fontSize=6;" parent="1" vertex="1">
          <mxGeometry x="1525" y="995" width="30" height="30" as="geometry" />
        </mxCell>
        <mxCell id="zS8ASJ6HUjmwFxihopLx-399" value="" style="edgeStyle=orthogonalEdgeStyle;rounded=0;orthogonalLoop=1;jettySize=auto;html=1;fontSize=6;" parent="1" source="zS8ASJ6HUjmwFxihopLx-381" target="zS8ASJ6HUjmwFxihopLx-397" edge="1">
          <mxGeometry relative="1" as="geometry" />
        </mxCell>
        <mxCell id="zS8ASJ6HUjmwFxihopLx-401" value="next_angle&lt;div&gt;(1,)&lt;/div&gt;" style="edgeLabel;html=1;align=center;verticalAlign=middle;resizable=0;points=[];fontSize=6;" parent="zS8ASJ6HUjmwFxihopLx-399" vertex="1" connectable="0">
          <mxGeometry x="-0.69" relative="1" as="geometry">
            <mxPoint y="2" as="offset" />
          </mxGeometry>
        </mxCell>
        <mxCell id="zS8ASJ6HUjmwFxihopLx-381" value="divide angle by max angle" style="whiteSpace=wrap;html=1;aspect=fixed;fillColor=#ffcc99;strokeColor=#36393d;fontSize=6;" parent="1" vertex="1">
          <mxGeometry x="1705" y="995" width="30" height="30" as="geometry" />
        </mxCell>
        <mxCell id="zS8ASJ6HUjmwFxihopLx-403" style="edgeStyle=orthogonalEdgeStyle;rounded=0;orthogonalLoop=1;jettySize=auto;html=1;entryX=0.25;entryY=0;entryDx=0;entryDy=0;fontSize=6;" parent="1" source="zS8ASJ6HUjmwFxihopLx-396" target="zS8ASJ6HUjmwFxihopLx-402" edge="1">
          <mxGeometry relative="1" as="geometry">
            <Array as="points">
              <mxPoint x="1540" y="1105" />
              <mxPoint x="1622" y="1105" />
            </Array>
          </mxGeometry>
        </mxCell>
        <mxCell id="zS8ASJ6HUjmwFxihopLx-405" value="prev_vector&lt;div&gt;(2,)&lt;/div&gt;" style="edgeLabel;html=1;align=center;verticalAlign=middle;resizable=0;points=[];fontSize=6;" parent="zS8ASJ6HUjmwFxihopLx-403" vertex="1" connectable="0">
          <mxGeometry x="-0.348" y="1" relative="1" as="geometry">
            <mxPoint x="8" y="1" as="offset" />
          </mxGeometry>
        </mxCell>
        <mxCell id="zS8ASJ6HUjmwFxihopLx-396" value="Convert to phase vector" style="whiteSpace=wrap;html=1;aspect=fixed;fillColor=#ffcc99;strokeColor=#36393d;fontSize=6;" parent="1" vertex="1">
          <mxGeometry x="1525" y="1055" width="30" height="30" as="geometry" />
        </mxCell>
        <mxCell id="zS8ASJ6HUjmwFxihopLx-404" style="edgeStyle=orthogonalEdgeStyle;rounded=0;orthogonalLoop=1;jettySize=auto;html=1;exitX=0.5;exitY=1;exitDx=0;exitDy=0;entryX=0.75;entryY=0;entryDx=0;entryDy=0;fontSize=6;" parent="1" source="zS8ASJ6HUjmwFxihopLx-397" target="zS8ASJ6HUjmwFxihopLx-402" edge="1">
          <mxGeometry relative="1" as="geometry">
            <Array as="points">
              <mxPoint x="1720" y="1105" />
              <mxPoint x="1638" y="1105" />
            </Array>
          </mxGeometry>
        </mxCell>
        <mxCell id="zS8ASJ6HUjmwFxihopLx-406" value="next_vector&lt;div&gt;(2,)&lt;/div&gt;" style="edgeLabel;html=1;align=center;verticalAlign=middle;resizable=0;points=[];fontSize=6;" parent="zS8ASJ6HUjmwFxihopLx-404" vertex="1" connectable="0">
          <mxGeometry x="0.045" relative="1" as="geometry">
            <mxPoint x="8" as="offset" />
          </mxGeometry>
        </mxCell>
        <mxCell id="zS8ASJ6HUjmwFxihopLx-397" value="Convert to phase vector" style="whiteSpace=wrap;html=1;aspect=fixed;fillColor=#ffcc99;strokeColor=#36393d;fontSize=6;" parent="1" vertex="1">
          <mxGeometry x="1705" y="1055" width="30" height="30" as="geometry" />
        </mxCell>
        <mxCell id="zS8ASJ6HUjmwFxihopLx-408" style="edgeStyle=orthogonalEdgeStyle;rounded=0;orthogonalLoop=1;jettySize=auto;html=1;entryX=0.5;entryY=0;entryDx=0;entryDy=0;fontSize=6;" parent="1" source="zS8ASJ6HUjmwFxihopLx-402" target="zS8ASJ6HUjmwFxihopLx-407" edge="1">
          <mxGeometry relative="1" as="geometry" />
        </mxCell>
        <mxCell id="zS8ASJ6HUjmwFxihopLx-409" value="angle&lt;div&gt;(1,)&lt;/div&gt;" style="edgeLabel;html=1;align=center;verticalAlign=middle;resizable=0;points=[];fontSize=6;" parent="zS8ASJ6HUjmwFxihopLx-408" vertex="1" connectable="0">
          <mxGeometry x="-0.1929" y="1" relative="1" as="geometry">
            <mxPoint as="offset" />
          </mxGeometry>
        </mxCell>
        <mxCell id="zS8ASJ6HUjmwFxihopLx-402" value="Get negative of signed angle" style="whiteSpace=wrap;html=1;aspect=fixed;fillColor=#ffcc99;strokeColor=#36393d;fontSize=6;" parent="1" vertex="1">
          <mxGeometry x="1615" y="1115" width="30" height="30" as="geometry" />
        </mxCell>
        <mxCell id="zS8ASJ6HUjmwFxihopLx-411" value="" style="edgeStyle=orthogonalEdgeStyle;rounded=0;orthogonalLoop=1;jettySize=auto;html=1;fontSize=6;" parent="1" source="zS8ASJ6HUjmwFxihopLx-407" target="zS8ASJ6HUjmwFxihopLx-410" edge="1">
          <mxGeometry relative="1" as="geometry" />
        </mxCell>
        <mxCell id="zS8ASJ6HUjmwFxihopLx-412" value="angle&lt;div&gt;(1,)&lt;/div&gt;" style="edgeLabel;html=1;align=center;verticalAlign=middle;resizable=0;points=[];fontSize=6;" parent="zS8ASJ6HUjmwFxihopLx-411" vertex="1" connectable="0">
          <mxGeometry x="-0.1739" y="-1" relative="1" as="geometry">
            <mxPoint x="1" y="-5" as="offset" />
          </mxGeometry>
        </mxCell>
        <mxCell id="zS8ASJ6HUjmwFxihopLx-407" value="angle % 1" style="whiteSpace=wrap;html=1;aspect=fixed;fillColor=#ffcc99;strokeColor=#36393d;fontSize=6;" parent="1" vertex="1">
          <mxGeometry x="1615" y="1185" width="30" height="30" as="geometry" />
        </mxCell>
        <mxCell id="zS8ASJ6HUjmwFxihopLx-415" style="edgeStyle=orthogonalEdgeStyle;rounded=0;orthogonalLoop=1;jettySize=auto;html=1;exitX=0.5;exitY=1;exitDx=0;exitDy=0;entryX=0.75;entryY=0;entryDx=0;entryDy=0;fontSize=6;" parent="1" source="zS8ASJ6HUjmwFxihopLx-410" target="zS8ASJ6HUjmwFxihopLx-413" edge="1">
          <mxGeometry relative="1" as="geometry">
            <Array as="points">
              <mxPoint x="1630" y="1305" />
              <mxPoint x="1572" y="1305" />
            </Array>
          </mxGeometry>
        </mxCell>
        <mxCell id="zS8ASJ6HUjmwFxihopLx-418" value="theta&lt;div&gt;(1,)&lt;/div&gt;" style="edgeLabel;html=1;align=center;verticalAlign=middle;resizable=0;points=[];fontSize=6;" parent="zS8ASJ6HUjmwFxihopLx-415" vertex="1" connectable="0">
          <mxGeometry x="-0.7745" y="1" relative="1" as="geometry">
            <mxPoint x="-26" y="8" as="offset" />
          </mxGeometry>
        </mxCell>
        <mxCell id="zS8ASJ6HUjmwFxihopLx-410" value="Calculate theta" style="whiteSpace=wrap;html=1;aspect=fixed;fillColor=#ffcc99;strokeColor=#36393d;fontSize=6;" parent="1" vertex="1">
          <mxGeometry x="1615" y="1255" width="30" height="30" as="geometry" />
        </mxCell>
        <mxCell id="zS8ASJ6HUjmwFxihopLx-420" value="" style="edgeStyle=orthogonalEdgeStyle;rounded=0;orthogonalLoop=1;jettySize=auto;html=1;fontSize=6;" parent="1" source="zS8ASJ6HUjmwFxihopLx-413" edge="1">
          <mxGeometry relative="1" as="geometry">
            <mxPoint x="1565" y="1415" as="targetPoint" />
          </mxGeometry>
        </mxCell>
        <mxCell id="zS8ASJ6HUjmwFxihopLx-421" value="rotated phase vector&lt;div&gt;(2,)&lt;/div&gt;" style="edgeLabel;html=1;align=center;verticalAlign=middle;resizable=0;points=[];fontSize=6;" parent="zS8ASJ6HUjmwFxihopLx-420" vertex="1" connectable="0">
          <mxGeometry x="-0.2727" relative="1" as="geometry">
            <mxPoint as="offset" />
          </mxGeometry>
        </mxCell>
        <mxCell id="zS8ASJ6HUjmwFxihopLx-413" value="R (θ ) · Phase" style="whiteSpace=wrap;html=1;aspect=fixed;fillColor=#ffcc99;strokeColor=#36393d;fontSize=6;" parent="1" vertex="1">
          <mxGeometry x="1550" y="1335" width="30" height="30" as="geometry" />
        </mxCell>
        <mxCell id="zS8ASJ6HUjmwFxihopLx-425" style="edgeStyle=orthogonalEdgeStyle;rounded=0;orthogonalLoop=1;jettySize=auto;html=1;exitX=0.5;exitY=1;exitDx=0;exitDy=0;fontSize=6;" parent="1" source="zS8ASJ6HUjmwFxihopLx-427" target="zS8ASJ6HUjmwFxihopLx-431" edge="1">
          <mxGeometry relative="1" as="geometry" />
        </mxCell>
        <mxCell id="zS8ASJ6HUjmwFxihopLx-426" value="angle&lt;div&gt;(1,)&lt;/div&gt;" style="edgeLabel;html=1;align=center;verticalAlign=middle;resizable=0;points=[];fontSize=6;" parent="zS8ASJ6HUjmwFxihopLx-425" vertex="1" connectable="0">
          <mxGeometry x="-0.1392" y="-1" relative="1" as="geometry">
            <mxPoint as="offset" />
          </mxGeometry>
        </mxCell>
        <mxCell id="zS8ASJ6HUjmwFxihopLx-427" value="Get negative of signed angle" style="whiteSpace=wrap;html=1;aspect=fixed;fillColor=#ffcc99;strokeColor=#36393d;fontSize=6;" parent="1" vertex="1">
          <mxGeometry x="1550" y="1475" width="30" height="30" as="geometry" />
        </mxCell>
        <mxCell id="zS8ASJ6HUjmwFxihopLx-429" value="" style="edgeStyle=orthogonalEdgeStyle;rounded=0;orthogonalLoop=1;jettySize=auto;html=1;fontSize=6;" parent="1" source="zS8ASJ6HUjmwFxihopLx-431" target="zS8ASJ6HUjmwFxihopLx-432" edge="1">
          <mxGeometry relative="1" as="geometry" />
        </mxCell>
        <mxCell id="zS8ASJ6HUjmwFxihopLx-430" value="angle&lt;div&gt;(1,)&lt;/div&gt;" style="edgeLabel;html=1;align=center;verticalAlign=middle;resizable=0;points=[];fontSize=6;" parent="zS8ASJ6HUjmwFxihopLx-429" vertex="1" connectable="0">
          <mxGeometry x="-0.1689" relative="1" as="geometry">
            <mxPoint as="offset" />
          </mxGeometry>
        </mxCell>
        <mxCell id="zS8ASJ6HUjmwFxihopLx-431" value="Ensure angle is positive" style="whiteSpace=wrap;html=1;aspect=fixed;fillColor=#ffcc99;strokeColor=#36393d;fontSize=6;" parent="1" vertex="1">
          <mxGeometry x="1550" y="1545" width="30" height="30" as="geometry" />
        </mxCell>
        <mxCell id="zS8ASJ6HUjmwFxihopLx-438" value="" style="edgeStyle=orthogonalEdgeStyle;rounded=0;orthogonalLoop=1;jettySize=auto;html=1;fontSize=6;" parent="1" source="zS8ASJ6HUjmwFxihopLx-432" target="zS8ASJ6HUjmwFxihopLx-437" edge="1">
          <mxGeometry relative="1" as="geometry" />
        </mxCell>
        <mxCell id="zS8ASJ6HUjmwFxihopLx-439" value="angle&lt;div&gt;(1,)&lt;/div&gt;" style="edgeLabel;html=1;align=center;verticalAlign=middle;resizable=0;points=[];fontSize=6;" parent="zS8ASJ6HUjmwFxihopLx-438" vertex="1" connectable="0">
          <mxGeometry x="-0.2573" relative="1" as="geometry">
            <mxPoint as="offset" />
          </mxGeometry>
        </mxCell>
        <mxCell id="zS8ASJ6HUjmwFxihopLx-432" value="divide angle by max angle" style="whiteSpace=wrap;html=1;aspect=fixed;fillColor=#ffcc99;strokeColor=#36393d;fontSize=6;" parent="1" vertex="1">
          <mxGeometry x="1550" y="1615" width="30" height="30" as="geometry" />
        </mxCell>
        <mxCell id="zS8ASJ6HUjmwFxihopLx-545" style="edgeStyle=orthogonalEdgeStyle;rounded=0;orthogonalLoop=1;jettySize=auto;html=1;exitX=1;exitY=0.5;exitDx=0;exitDy=0;" parent="1" source="zS8ASJ6HUjmwFxihopLx-433" target="zS8ASJ6HUjmwFxihopLx-544" edge="1">
          <mxGeometry relative="1" as="geometry" />
        </mxCell>
        <mxCell id="zS8ASJ6HUjmwFxihopLx-433" value="up vector&lt;div&gt;[0,1]&lt;/div&gt;" style="ellipse;whiteSpace=wrap;html=1;aspect=fixed;fontSize=6;fillColor=#cdeb8b;strokeColor=#36393d;" parent="1" vertex="1">
          <mxGeometry x="1485" y="1415" width="30" height="30" as="geometry" />
        </mxCell>
        <mxCell id="zS8ASJ6HUjmwFxihopLx-469" style="edgeStyle=orthogonalEdgeStyle;rounded=0;orthogonalLoop=1;jettySize=auto;html=1;exitX=0.5;exitY=1;exitDx=0;exitDy=0;entryX=0;entryY=0.5;entryDx=0;entryDy=0;fontSize=6;" parent="1" source="zS8ASJ6HUjmwFxihopLx-437" target="zS8ASJ6HUjmwFxihopLx-304" edge="1">
          <mxGeometry relative="1" as="geometry">
            <Array as="points">
              <mxPoint x="1565" y="1735" />
              <mxPoint x="1385" y="1735" />
              <mxPoint x="1385" y="145" />
            </Array>
          </mxGeometry>
        </mxCell>
        <mxCell id="zS8ASJ6HUjmwFxihopLx-437" value="Phase[i][b] = angle&amp;nbsp;" style="whiteSpace=wrap;html=1;aspect=fixed;fillColor=#ffcc99;strokeColor=#36393d;fontSize=6;" parent="1" vertex="1">
          <mxGeometry x="1550" y="1685" width="30" height="30" as="geometry" />
        </mxCell>
        <mxCell id="zS8ASJ6HUjmwFxihopLx-468" style="edgeStyle=orthogonalEdgeStyle;rounded=0;orthogonalLoop=1;jettySize=auto;html=1;exitX=0.5;exitY=1;exitDx=0;exitDy=0;entryX=0;entryY=0.5;entryDx=0;entryDy=0;fontSize=6;" parent="1" source="zS8ASJ6HUjmwFxihopLx-441" target="zS8ASJ6HUjmwFxihopLx-304" edge="1">
          <mxGeometry relative="1" as="geometry">
            <Array as="points">
              <mxPoint x="1450" y="1725" />
              <mxPoint x="1405" y="1725" />
              <mxPoint x="1405" y="145" />
            </Array>
          </mxGeometry>
        </mxCell>
        <mxCell id="zS8ASJ6HUjmwFxihopLx-441" value="Freq[i][b] = freq" style="whiteSpace=wrap;html=1;aspect=fixed;fillColor=#ffcc99;strokeColor=#36393d;fontSize=6;" parent="1" vertex="1">
          <mxGeometry x="1435" y="1685" width="30" height="30" as="geometry" />
        </mxCell>
        <mxCell id="zS8ASJ6HUjmwFxihopLx-556" style="edgeStyle=orthogonalEdgeStyle;rounded=0;orthogonalLoop=1;jettySize=auto;html=1;exitX=0.5;exitY=1;exitDx=0;exitDy=0;" parent="1" source="zS8ASJ6HUjmwFxihopLx-448" target="zS8ASJ6HUjmwFxihopLx-441" edge="1">
          <mxGeometry relative="1" as="geometry" />
        </mxCell>
        <mxCell id="njQS3QJm0R4QUgpITw78-47" value="freq&lt;div&gt;(1,)&lt;/div&gt;" style="edgeLabel;html=1;align=center;verticalAlign=middle;resizable=0;points=[];fontSize=6;" vertex="1" connectable="0" parent="zS8ASJ6HUjmwFxihopLx-556">
          <mxGeometry x="0.9569" relative="1" as="geometry">
            <mxPoint as="offset" />
          </mxGeometry>
        </mxCell>
        <mxCell id="zS8ASJ6HUjmwFxihopLx-448" value="lerp" style="whiteSpace=wrap;html=1;aspect=fixed;fillColor=#ffcc99;strokeColor=#36393d;fontSize=6;" parent="1" vertex="1">
          <mxGeometry x="1415" y="525" width="30" height="30" as="geometry" />
        </mxCell>
        <mxCell id="zS8ASJ6HUjmwFxihopLx-464" style="edgeStyle=orthogonalEdgeStyle;rounded=0;orthogonalLoop=1;jettySize=auto;html=1;exitX=0.5;exitY=1;exitDx=0;exitDy=0;entryX=0.5;entryY=0;entryDx=0;entryDy=0;" parent="1" source="zS8ASJ6HUjmwFxihopLx-451" target="zS8ASJ6HUjmwFxihopLx-463" edge="1">
          <mxGeometry relative="1" as="geometry">
            <Array as="points">
              <mxPoint x="1785" y="555" />
              <mxPoint x="1785" y="1595" />
              <mxPoint x="1701" y="1595" />
            </Array>
          </mxGeometry>
        </mxCell>
        <mxCell id="zS8ASJ6HUjmwFxihopLx-467" value="amp&lt;div&gt;(1,)&lt;/div&gt;" style="edgeLabel;html=1;align=center;verticalAlign=middle;resizable=0;points=[];fontSize=6;" parent="zS8ASJ6HUjmwFxihopLx-464" vertex="1" connectable="0">
          <mxGeometry x="0.9613" relative="1" as="geometry">
            <mxPoint as="offset" />
          </mxGeometry>
        </mxCell>
        <mxCell id="zS8ASJ6HUjmwFxihopLx-451" value="lerp" style="whiteSpace=wrap;html=1;aspect=fixed;fillColor=#ffcc99;strokeColor=#36393d;fontSize=6;" parent="1" vertex="1">
          <mxGeometry x="1770" y="515" width="30" height="30" as="geometry" />
        </mxCell>
        <mxCell id="zS8ASJ6HUjmwFxihopLx-470" style="edgeStyle=orthogonalEdgeStyle;rounded=0;orthogonalLoop=1;jettySize=auto;html=1;entryX=0;entryY=0.5;entryDx=0;entryDy=0;fontSize=6;" parent="1" source="zS8ASJ6HUjmwFxihopLx-463" target="zS8ASJ6HUjmwFxihopLx-304" edge="1">
          <mxGeometry relative="1" as="geometry">
            <Array as="points">
              <mxPoint x="1705" y="1745" />
              <mxPoint x="1395" y="1745" />
              <mxPoint x="1395" y="145" />
            </Array>
          </mxGeometry>
        </mxCell>
        <mxCell id="zS8ASJ6HUjmwFxihopLx-463" value="Amp[i][b] = amp" style="whiteSpace=wrap;html=1;aspect=fixed;fillColor=#ffcc99;strokeColor=#36393d;fontSize=6;" parent="1" vertex="1">
          <mxGeometry x="1686" y="1685" width="30" height="30" as="geometry" />
        </mxCell>
        <mxCell id="zS8ASJ6HUjmwFxihopLx-475" value="&lt;font style=&quot;font-size: 12px;&quot;&gt;Initial phase space is all 0s&lt;/font&gt;" style="text;html=1;align=center;verticalAlign=middle;whiteSpace=wrap;rounded=0;fontSize=6;" parent="1" vertex="1">
          <mxGeometry x="-10" y="-160" width="60" height="30" as="geometry" />
        </mxCell>
        <mxCell id="zS8ASJ6HUjmwFxihopLx-481" style="edgeStyle=orthogonalEdgeStyle;rounded=0;orthogonalLoop=1;jettySize=auto;html=1;entryX=0;entryY=0.5;entryDx=0;entryDy=0;fontSize=6;" parent="1" source="zS8ASJ6HUjmwFxihopLx-479" target="zS8ASJ6HUjmwFxihopLx-189" edge="1">
          <mxGeometry relative="1" as="geometry" />
        </mxCell>
        <mxCell id="zS8ASJ6HUjmwFxihopLx-479" value="MANN prediction:&lt;br&gt;&amp;nbsp;phase update" style="shape=hexagon;perimeter=hexagonPerimeter2;whiteSpace=wrap;html=1;fixedSize=1;fontSize=6;fillColor=#ffcccc;strokeColor=#36393d;" parent="1" vertex="1">
          <mxGeometry x="665" y="105" width="80" height="50" as="geometry" />
        </mxCell>
        <mxCell id="njQS3QJm0R4QUgpITw78-37" style="edgeStyle=orthogonalEdgeStyle;rounded=0;orthogonalLoop=1;jettySize=auto;html=1;entryX=0;entryY=0.5;entryDx=0;entryDy=0;" edge="1" parent="1" source="zS8ASJ6HUjmwFxihopLx-482" target="zS8ASJ6HUjmwFxihopLx-479">
          <mxGeometry relative="1" as="geometry">
            <Array as="points">
              <mxPoint x="635" y="190" />
              <mxPoint x="635" y="130" />
            </Array>
          </mxGeometry>
        </mxCell>
        <mxCell id="zS8ASJ6HUjmwFxihopLx-482" value="Command vels&lt;div&gt;character data&lt;/div&gt;" style="ellipse;whiteSpace=wrap;html=1;fontSize=6;fillColor=#cdeb8b;strokeColor=#36393d;" parent="1" vertex="1">
          <mxGeometry x="527.5" y="160" width="60" height="60" as="geometry" />
        </mxCell>
        <mxCell id="zS8ASJ6HUjmwFxihopLx-488" value="&lt;font style=&quot;font-size: 12px;&quot;&gt;Phase Combination&lt;/font&gt;" style="text;html=1;align=center;verticalAlign=middle;whiteSpace=wrap;rounded=0;fontSize=6;" parent="1" vertex="1">
          <mxGeometry x="1045" y="-25" width="60" height="30" as="geometry" />
        </mxCell>
        <mxCell id="zS8ASJ6HUjmwFxihopLx-489" value="Phase Update&lt;div&gt;(140,)&lt;/div&gt;" style="edgeLabel;html=1;align=center;verticalAlign=middle;resizable=0;points=[];fontSize=6;" parent="1" vertex="1" connectable="0">
          <mxGeometry x="1130.0011627906974" y="285.0032558139535" as="geometry" />
        </mxCell>
        <mxCell id="zS8ASJ6HUjmwFxihopLx-493" value="get phase value from slerp" style="text;html=1;align=center;verticalAlign=middle;resizable=0;points=[];autosize=1;strokeColor=none;fillColor=none;" parent="1" vertex="1">
          <mxGeometry x="975" y="805" width="160" height="30" as="geometry" />
        </mxCell>
        <mxCell id="zS8ASJ6HUjmwFxihopLx-494" value="calculate signed angle" style="whiteSpace=wrap;html=1;aspect=fixed;fillColor=#ffcc99;strokeColor=#36393d;fontSize=6;" parent="1" vertex="1">
          <mxGeometry x="1120" y="835" width="40" height="40" as="geometry" />
        </mxCell>
        <mxCell id="njQS3QJm0R4QUgpITw78-46" style="edgeStyle=orthogonalEdgeStyle;rounded=0;orthogonalLoop=1;jettySize=auto;html=1;exitX=1;exitY=0.5;exitDx=0;exitDy=0;entryX=0.5;entryY=0;entryDx=0;entryDy=0;" edge="1" parent="1" source="zS8ASJ6HUjmwFxihopLx-495" target="zS8ASJ6HUjmwFxihopLx-182">
          <mxGeometry relative="1" as="geometry">
            <Array as="points">
              <mxPoint x="1925" y="65" />
              <mxPoint x="1925" y="-140" />
              <mxPoint x="120" y="-140" />
            </Array>
          </mxGeometry>
        </mxCell>
        <mxCell id="zS8ASJ6HUjmwFxihopLx-495" value="Phase Series&lt;div&gt;Phase: (121,5)&lt;/div&gt;&lt;div&gt;Amp: (121,5)&lt;/div&gt;&lt;div&gt;Freq:&lt;/div&gt;&lt;div&gt;(121,5)&lt;/div&gt;" style="ellipse;whiteSpace=wrap;html=1;fontSize=6;fillColor=#cdeb8b;strokeColor=#36393d;" parent="1" vertex="1">
          <mxGeometry x="1845" y="35" width="60" height="60" as="geometry" />
        </mxCell>
        <mxCell id="zS8ASJ6HUjmwFxihopLx-499" style="edgeStyle=orthogonalEdgeStyle;rounded=0;orthogonalLoop=1;jettySize=auto;html=1;exitX=1;exitY=0.5;exitDx=0;exitDy=0;" parent="1" source="zS8ASJ6HUjmwFxihopLx-497" target="zS8ASJ6HUjmwFxihopLx-304" edge="1">
          <mxGeometry relative="1" as="geometry" />
        </mxCell>
        <mxCell id="zS8ASJ6HUjmwFxihopLx-497" value="Phase Update Adjusted&lt;div&gt;(5x7x3)&lt;/div&gt;" style="ellipse;whiteSpace=wrap;html=1;fontSize=6;fillColor=#cdeb8b;strokeColor=#36393d;" parent="1" vertex="1">
          <mxGeometry x="1255" y="40" width="60" height="60" as="geometry" />
        </mxCell>
        <mxCell id="zS8ASJ6HUjmwFxihopLx-501" value="&lt;font style=&quot;font-size: 12px;&quot;&gt;Interpolation&lt;/font&gt;" style="text;html=1;align=center;verticalAlign=middle;whiteSpace=wrap;rounded=0;fontSize=6;" parent="1" vertex="1">
          <mxGeometry x="1580" y="-25" width="60" height="30" as="geometry" />
        </mxCell>
        <mxCell id="zS8ASJ6HUjmwFxihopLx-503" value="next_amp&lt;div&gt;(1,)&lt;/div&gt;" style="edgeLabel;html=1;align=center;verticalAlign=middle;resizable=0;points=[];fontSize=6;" parent="1" vertex="1" connectable="0">
          <mxGeometry x="1701.0000000000005" y="455.0012903225805" as="geometry">
            <mxPoint x="-6" y="6" as="offset" />
          </mxGeometry>
        </mxCell>
        <mxCell id="zS8ASJ6HUjmwFxihopLx-504" value="next_freq&lt;div&gt;(1,)&lt;/div&gt;" style="edgeLabel;html=1;align=center;verticalAlign=middle;resizable=0;points=[];fontSize=6;" parent="1" vertex="1" connectable="0">
          <mxGeometry x="1655.0000000000005" y="455.0012903225805" as="geometry">
            <mxPoint x="-6" y="6" as="offset" />
          </mxGeometry>
        </mxCell>
        <mxCell id="zS8ASJ6HUjmwFxihopLx-505" value="prev_amp&lt;div&gt;(1,)&lt;/div&gt;" style="edgeLabel;html=1;align=center;verticalAlign=middle;resizable=0;points=[];fontSize=6;" parent="1" vertex="1" connectable="0">
          <mxGeometry x="1500" y="454.9964516129032" as="geometry" />
        </mxCell>
        <mxCell id="zS8ASJ6HUjmwFxihopLx-506" value="prev_freq&lt;div&gt;(1,)&lt;/div&gt;" style="edgeLabel;html=1;align=center;verticalAlign=middle;resizable=0;points=[];fontSize=6;" parent="1" vertex="1" connectable="0">
          <mxGeometry x="1477.5" y="464.9964516129032" as="geometry">
            <mxPoint x="-24" y="-10" as="offset" />
          </mxGeometry>
        </mxCell>
        <mxCell id="zS8ASJ6HUjmwFxihopLx-507" value="Calculate signed angle" style="whiteSpace=wrap;html=1;aspect=fixed;fillColor=#ffcc99;strokeColor=#36393d;fontSize=6;" parent="1" vertex="1">
          <mxGeometry x="1705" y="695" width="30" height="30" as="geometry" />
        </mxCell>
        <mxCell id="zS8ASJ6HUjmwFxihopLx-522" value="next_phase&lt;div&gt;(1,)&lt;/div&gt;" style="edgeLabel;html=1;align=center;verticalAlign=middle;resizable=0;points=[];fontSize=6;" parent="1" vertex="1" connectable="0">
          <mxGeometry x="1715" y="815.0033333333334" as="geometry">
            <mxPoint x="8" as="offset" />
          </mxGeometry>
        </mxCell>
        <mxCell id="zS8ASJ6HUjmwFxihopLx-542" style="edgeStyle=orthogonalEdgeStyle;rounded=0;orthogonalLoop=1;jettySize=auto;html=1;exitX=0.5;exitY=1;exitDx=0;exitDy=0;entryX=0.25;entryY=0;entryDx=0;entryDy=0;" parent="1" source="zS8ASJ6HUjmwFxihopLx-537" target="zS8ASJ6HUjmwFxihopLx-413" edge="1">
          <mxGeometry relative="1" as="geometry">
            <Array as="points">
              <mxPoint x="1485" y="1305" />
              <mxPoint x="1558" y="1305" />
            </Array>
          </mxGeometry>
        </mxCell>
        <mxCell id="zS8ASJ6HUjmwFxihopLx-543" value="prev_phase_vector&lt;div&gt;(2,)&lt;/div&gt;" style="edgeLabel;html=1;align=center;verticalAlign=middle;resizable=0;points=[];fontSize=6;" parent="zS8ASJ6HUjmwFxihopLx-542" vertex="1" connectable="0">
          <mxGeometry x="0.7659" y="2" relative="1" as="geometry">
            <mxPoint as="offset" />
          </mxGeometry>
        </mxCell>
        <mxCell id="zS8ASJ6HUjmwFxihopLx-537" value="Normalize phase vector" style="whiteSpace=wrap;html=1;aspect=fixed;fillColor=#ffcc99;strokeColor=#36393d;fontSize=6;" parent="1" vertex="1">
          <mxGeometry x="1470" y="700" width="30" height="30" as="geometry" />
        </mxCell>
        <mxCell id="zS8ASJ6HUjmwFxihopLx-541" value="scaled prev_phase_vector&lt;div&gt;(2,)&lt;/div&gt;" style="edgeLabel;html=1;align=center;verticalAlign=middle;resizable=0;points=[];fontSize=6;" parent="1" vertex="1" connectable="0">
          <mxGeometry x="1539.9999999999995" y="655.0003225806449" as="geometry" />
        </mxCell>
        <mxCell id="zS8ASJ6HUjmwFxihopLx-546" style="edgeStyle=orthogonalEdgeStyle;rounded=0;orthogonalLoop=1;jettySize=auto;html=1;entryX=0.5;entryY=0;entryDx=0;entryDy=0;" parent="1" source="zS8ASJ6HUjmwFxihopLx-544" target="zS8ASJ6HUjmwFxihopLx-427" edge="1">
          <mxGeometry relative="1" as="geometry" />
        </mxCell>
        <mxCell id="zS8ASJ6HUjmwFxihopLx-547" value="angle&lt;div&gt;(1,)&lt;/div&gt;" style="edgeLabel;html=1;align=center;verticalAlign=middle;resizable=0;points=[];fontSize=6;" parent="zS8ASJ6HUjmwFxihopLx-546" vertex="1" connectable="0">
          <mxGeometry x="-0.6077" y="-2" relative="1" as="geometry">
            <mxPoint x="2" as="offset" />
          </mxGeometry>
        </mxCell>
        <mxCell id="zS8ASJ6HUjmwFxihopLx-544" value="calculate signed angle" style="whiteSpace=wrap;html=1;aspect=fixed;fillColor=#ffcc99;strokeColor=#36393d;fontSize=6;" parent="1" vertex="1">
          <mxGeometry x="1550" y="1415" width="30" height="30" as="geometry" />
        </mxCell>
        <mxCell id="zS8ASJ6HUjmwFxihopLx-555" value="Calculate angle between prev_phase and next_phase" style="text;html=1;align=center;verticalAlign=middle;whiteSpace=wrap;rounded=0;" parent="1" vertex="1">
          <mxGeometry x="1565" y="1055" width="130" height="30" as="geometry" />
        </mxCell>
        <mxCell id="njQS3QJm0R4QUgpITw78-26" style="edgeStyle=orthogonalEdgeStyle;rounded=0;orthogonalLoop=1;jettySize=auto;html=1;exitX=1;exitY=0.25;exitDx=0;exitDy=0;entryX=0;entryY=0.5;entryDx=0;entryDy=0;" edge="1" parent="1" source="njQS3QJm0R4QUgpITw78-2" target="njQS3QJm0R4QUgpITw78-23">
          <mxGeometry relative="1" as="geometry" />
        </mxCell>
        <mxCell id="njQS3QJm0R4QUgpITw78-29" value="phase angle&lt;div&gt;(13,5,1)&lt;/div&gt;" style="edgeLabel;html=1;align=center;verticalAlign=middle;resizable=0;points=[];fontSize=6;" vertex="1" connectable="0" parent="njQS3QJm0R4QUgpITw78-26">
          <mxGeometry x="-0.4486" relative="1" as="geometry">
            <mxPoint x="9" y="-6" as="offset" />
          </mxGeometry>
        </mxCell>
        <mxCell id="njQS3QJm0R4QUgpITw78-30" style="edgeStyle=orthogonalEdgeStyle;rounded=0;orthogonalLoop=1;jettySize=auto;html=1;exitX=1;exitY=0.75;exitDx=0;exitDy=0;entryX=0;entryY=0.75;entryDx=0;entryDy=0;" edge="1" parent="1" source="njQS3QJm0R4QUgpITw78-2" target="njQS3QJm0R4QUgpITw78-27">
          <mxGeometry relative="1" as="geometry" />
        </mxCell>
        <mxCell id="njQS3QJm0R4QUgpITw78-32" value="amplitude&lt;div&gt;(13,5,1)&lt;/div&gt;" style="edgeLabel;html=1;align=center;verticalAlign=middle;resizable=0;points=[];fontSize=6;" vertex="1" connectable="0" parent="njQS3QJm0R4QUgpITw78-30">
          <mxGeometry x="-0.0997" y="2" relative="1" as="geometry">
            <mxPoint y="3" as="offset" />
          </mxGeometry>
        </mxCell>
        <mxCell id="njQS3QJm0R4QUgpITw78-2" value="separate phase series into components" style="whiteSpace=wrap;html=1;aspect=fixed;fillColor=#ffcc99;strokeColor=#36393d;fontSize=6;" vertex="1" parent="1">
          <mxGeometry x="305" y="102.5" width="35" height="35" as="geometry" />
        </mxCell>
        <mxCell id="njQS3QJm0R4QUgpITw78-12" style="edgeStyle=orthogonalEdgeStyle;rounded=0;orthogonalLoop=1;jettySize=auto;html=1;" edge="1" parent="1" source="njQS3QJm0R4QUgpITw78-10" target="njQS3QJm0R4QUgpITw78-2">
          <mxGeometry relative="1" as="geometry" />
        </mxCell>
        <mxCell id="njQS3QJm0R4QUgpITw78-13" value="phase series&lt;div&gt;(13,5,3)&lt;/div&gt;" style="edgeLabel;html=1;align=center;verticalAlign=middle;resizable=0;points=[];fontSize=6;" vertex="1" connectable="0" parent="njQS3QJm0R4QUgpITw78-12">
          <mxGeometry x="-0.2909" relative="1" as="geometry">
            <mxPoint x="6" as="offset" />
          </mxGeometry>
        </mxCell>
        <mxCell id="njQS3QJm0R4QUgpITw78-10" value="uniform sample phase&lt;div&gt;series&lt;/div&gt;" style="whiteSpace=wrap;html=1;aspect=fixed;fillColor=#ffcc99;strokeColor=#36393d;fontSize=6;" vertex="1" parent="1">
          <mxGeometry x="210" y="102.5" width="35" height="35" as="geometry" />
        </mxCell>
        <mxCell id="njQS3QJm0R4QUgpITw78-23" value="convert phase angle into phase vec" style="whiteSpace=wrap;html=1;aspect=fixed;fillColor=#ffcc99;strokeColor=#36393d;fontSize=6;" vertex="1" parent="1">
          <mxGeometry x="413" y="80" width="35" height="35" as="geometry" />
        </mxCell>
        <mxCell id="njQS3QJm0R4QUgpITw78-34" style="edgeStyle=orthogonalEdgeStyle;rounded=0;orthogonalLoop=1;jettySize=auto;html=1;exitX=1;exitY=0.5;exitDx=0;exitDy=0;entryX=0;entryY=0.25;entryDx=0;entryDy=0;jumpStyle=arc;" edge="1" parent="1" source="njQS3QJm0R4QUgpITw78-27" target="zS8ASJ6HUjmwFxihopLx-479">
          <mxGeometry relative="1" as="geometry" />
        </mxCell>
        <mxCell id="njQS3QJm0R4QUgpITw78-27" value="scale phase vec by amplitude" style="whiteSpace=wrap;html=1;aspect=fixed;fillColor=#ffcc99;strokeColor=#36393d;fontSize=6;" vertex="1" parent="1">
          <mxGeometry x="540" y="102.5" width="35" height="35" as="geometry" />
        </mxCell>
        <mxCell id="njQS3QJm0R4QUgpITw78-28" style="edgeStyle=orthogonalEdgeStyle;rounded=0;orthogonalLoop=1;jettySize=auto;html=1;entryX=-0.026;entryY=0.455;entryDx=0;entryDy=0;entryPerimeter=0;" edge="1" parent="1" source="njQS3QJm0R4QUgpITw78-23" target="njQS3QJm0R4QUgpITw78-27">
          <mxGeometry relative="1" as="geometry" />
        </mxCell>
        <mxCell id="njQS3QJm0R4QUgpITw78-31" value="phase vector&lt;div&gt;(13,5,2)&lt;/div&gt;" style="edgeLabel;html=1;align=center;verticalAlign=middle;resizable=0;points=[];fontSize=6;" vertex="1" connectable="0" parent="1">
          <mxGeometry x="494.9997567963726" y="105.00014978528769" as="geometry" />
        </mxCell>
        <mxCell id="njQS3QJm0R4QUgpITw78-36" value="phase vector&lt;div&gt;(13,5,2)&lt;/div&gt;" style="edgeLabel;html=1;align=center;verticalAlign=middle;resizable=0;points=[];fontSize=6;" vertex="1" connectable="0" parent="1">
          <mxGeometry x="614.9997567963726" y="115.00014978528769" as="geometry" />
        </mxCell>
        <mxCell id="njQS3QJm0R4QUgpITw78-45" style="edgeStyle=orthogonalEdgeStyle;rounded=0;orthogonalLoop=1;jettySize=auto;html=1;entryX=0.75;entryY=0;entryDx=0;entryDy=0;" edge="1" parent="1" source="njQS3QJm0R4QUgpITw78-43" target="zS8ASJ6HUjmwFxihopLx-194">
          <mxGeometry relative="1" as="geometry" />
        </mxCell>
        <mxCell id="njQS3QJm0R4QUgpITw78-43" value="Phase Series&lt;div&gt;Phase: (121,5)&lt;/div&gt;&lt;div&gt;Amp: (121,5)&lt;/div&gt;&lt;div&gt;Freq:&lt;/div&gt;&lt;div&gt;(121,5)&lt;/div&gt;" style="ellipse;whiteSpace=wrap;html=1;fontSize=6;fillColor=#cdeb8b;strokeColor=#36393d;" vertex="1" parent="1">
          <mxGeometry x="775" y="-20" width="60" height="60" as="geometry" />
        </mxCell>
      </root>
    </mxGraphModel>
  </diagram>
</mxfile>
